<svg width="49" height="49" viewBox="0 0 49 49" fill="none" xmlns="http://www.w3.org/2000/svg">
<path fill-rule="evenodd" clip-rule="evenodd" d="M42.5 29.9254C43 29.9254 43.3 29.5254 43.3 29.1254V27.1254C43.3 25.2254 41.8 23.7254 40 23.7254H25.2V20.0254C25.2 19.5254 24.8 19.2254 24.4 19.2254C23.9 19.2254 23.6 19.6254 23.6 20.0254V23.7254H8.7C6.9 23.7254 5.4 25.2254 5.4 27.1254V29.1254C5.4 29.6254 5.8 29.9254 6.2 29.9254C6.7 29.9254 7 29.5254 7 29.0254V27.0254C7 26.1254 7.7 25.3254 8.7 25.3254H23.6V29.0254C23.6 29.5254 24 29.8254 24.4 29.8254C24.9 29.8254 25.2 29.4254 25.2 29.0254V25.3254H40C40.9 25.3254 41.7 26.1254 41.7 27.0254V29.0254C41.7 29.5254 42.1 29.9254 42.5 29.9254ZM30.6 10.2254C30.6 8.22536 29.4 6.62536 27.5 6.12536C27.4 6.02536 27.2 6.02536 27 5.92536C27.6 5.02536 27.6 4.12536 27.6 3.12536C27.5 1.52536 26.3 0.125359 24.7 0.0253585C23.1 -0.174641 21.6 0.825359 21.2 2.42536C21 3.62536 21 4.82536 21.7 5.92536C21.6 5.92536 21.5 5.92536 21.5 6.02536C19.4 6.52536 18.1 8.12536 18.1 10.3254C18.1 11.5254 18.1 13.5254 18.1 14.7254C18.1 15.2254 18.4 15.5254 18.9 15.5254C22.6 15.5254 26.2 15.5254 29.9 15.5254C30.4 15.5254 30.7 15.2254 30.7 14.7254C30.7 13.5254 30.7 11.4254 30.6 10.2254ZM22.5 3.02536C22.6 2.02536 23.5 1.32536 24.4 1.42536C25.4 1.52536 26.2 2.22536 26.2 3.22536C26.2 3.32536 26.2 3.52536 26.2 3.62536C26.2 3.92536 26.2 4.22536 26.1 4.52536C25.9 5.42536 25 5.92536 24.1 5.82536C23.3 5.72536 22.6 5.12536 22.5 4.22536C22.5 3.92536 22.5 3.42536 22.5 3.02536ZM29.3 14.1254C26 14.1254 22.8 14.1254 19.5 14.1254C19.5 13.0254 19.4 11.0254 19.5 9.92536C19.6 8.52536 20.7 7.42536 22.1 7.32536C23.6 7.22536 25.2 7.22536 26.7 7.32536C28.1 7.42536 29.2 8.52536 29.3 9.92536C29.3 11.0254 29.3 13.0254 29.3 14.1254ZM30.6 42.8254C30.6 40.8254 29.4 39.2254 27.5 38.7254C27.3 38.6254 27.1 38.6254 26.9 38.6254C27.5 37.7254 27.5 36.8254 27.5 35.8254C27.4 34.2254 26.2 32.8254 24.6 32.7254C23 32.5254 21.5 33.5254 21.1 35.1254C20.8 36.3254 20.9 37.5254 21.6 38.6254C21.5 38.6254 21.4 38.6254 21.4 38.7254C19.3 39.2254 18 40.8254 18 43.0254C18 44.2254 18 46.2254 18 47.4254C18 47.9254 18.3 48.2254 18.8 48.2254C22.5 48.2254 26.1 48.2254 29.8 48.2254C30.3 48.2254 30.6 47.9254 30.6 47.4254C30.6 46.1254 30.7 44.0254 30.6 42.8254ZM22.5 35.7254C22.6 34.7254 23.5 34.0254 24.4 34.1254C25.4 34.2254 26.2 34.9254 26.2 35.9254C26.2 36.0254 26.2 36.2254 26.2 36.3254C26.2 36.6254 26.2 36.9254 26.1 37.2254C25.9 38.1254 25 38.6254 24.1 38.5254C23.3 38.4254 22.6 37.8254 22.5 36.9254C22.5 36.5254 22.5 36.1254 22.5 35.7254ZM29.3 46.7254C26 46.7254 22.8 46.7254 19.5 46.7254C19.5 45.6254 19.4 43.6254 19.5 42.5254C19.6 41.1254 20.7 40.0254 22.1 39.9254C23.6 39.8254 25.2 39.8254 26.7 39.9254C28.1 40.0254 29.2 41.1254 29.3 42.5254C29.3 43.7254 29.3 45.6254 29.3 46.7254ZM12.6 42.8254C12.6 40.8254 11.4 39.2254 9.5 38.7254C9.3 38.6254 9.1 38.6254 8.9 38.6254C9.5 37.7254 9.5 36.8254 9.5 35.8254C9.4 34.2254 8.2 32.8254 6.6 32.7254C5 32.5254 3.5 33.5254 3.1 35.1254C2.8 36.3254 2.9 37.5254 3.6 38.6254C3.5 38.6254 3.4 38.6254 3.4 38.7254C1.3 39.1254 0 40.8254 0 43.0254C0 44.2254 0 46.2254 0 47.4254C0 47.9254 0.3 48.2254 0.8 48.2254C4.5 48.2254 8.1 48.2254 11.8 48.2254C12.3 48.2254 12.6 47.9254 12.6 47.4254C12.6 46.1254 12.6 44.0254 12.6 42.8254ZM4.4 35.7254C4.5 34.7254 5.4 34.0254 6.3 34.1254C7.3 34.2254 8.1 34.9254 8.1 35.9254C8.1 36.0254 8.1 36.2254 8.1 36.3254C8.1 36.6254 8.1 36.9254 8 37.2254C7.8 38.1254 6.9 38.6254 6 38.5254C5.2 38.4254 4.5 37.8254 4.4 36.9254C4.4 36.5254 4.4 36.1254 4.4 35.7254ZM11.2 46.7254C7.9 46.7254 4.7 46.7254 1.4 46.7254C1.4 45.6254 1.3 43.6254 1.4 42.5254C1.5 41.2254 2.6 40.1254 4 40.0254C5.5 39.9254 7.1 39.9254 8.6 40.0254C10 40.1254 11.1 41.2254 11.2 42.6254C11.2 43.7254 11.2 45.6254 11.2 46.7254ZM48.8 42.8254C48.8 40.8254 47.6 39.2254 45.7 38.7254C45.5 38.6254 45.3 38.6254 45.1 38.6254C45.7 37.7254 45.7 36.8254 45.7 35.8254C45.6 34.2254 44.4 32.8254 42.8 32.7254C41.2 32.5254 39.7 33.5254 39.3 35.1254C39 36.3254 39.1 37.5254 39.8 38.6254C39.7 38.6254 39.6 38.6254 39.6 38.7254C37.5 39.2254 36.2 40.8254 36.2 43.0254C36.2 44.2254 36.2 46.2254 36.2 47.4254C36.2 47.9254 36.5 48.2254 37 48.2254C40.7 48.2254 44.3 48.2254 48 48.2254C48.5 48.2254 48.8 47.9254 48.8 47.4254C48.8 46.1254 48.8 44.0254 48.8 42.8254ZM40.6 35.7254C40.7 34.7254 41.6 34.0254 42.5 34.1254C43.5 34.2254 44.3 34.9254 44.3 35.9254C44.3 36.0254 44.3 36.2254 44.3 36.3254C44.3 36.6254 44.3 36.9254 44.2 37.2254C44 38.1254 43.1 38.6254 42.2 38.5254C41.4 38.4254 40.7 37.8254 40.6 36.9254C40.6 36.5254 40.6 36.1254 40.6 35.7254ZM47.4 46.7254C44.1 46.7254 40.9 46.7254 37.6 46.7254C37.6 45.6254 37.5 43.6254 37.6 42.5254C37.7 41.1254 38.8 40.0254 40.2 39.9254C41.7 39.8254 43.3 39.8254 44.8 39.9254C46.2 40.0254 47.3 41.1254 47.4 42.5254C47.5 43.7254 47.4 45.6254 47.4 46.7254Z" fill="#D0222B"/>
</svg>
