<svg width="100" height="100" viewBox="0 0 24 24" fill="none" xmlns="http://www.w3.org/2000/svg">
  <path d="M14 2H6C4.89543 2 4 2.89543 4 4V20C4 21.1046 4.89543 22 6 22H18C19.1046 22 20 21.1046 20 20V8L14 2Z" stroke="#334155" stroke-width="2" stroke-linecap="round" stroke-linejoin="round"/>
  
  <path d="M8 10H12" stroke="#334155" stroke-width="2" stroke-linecap="round"/>
  <path d="M8 14H10" stroke="#334155" stroke-width="2" stroke-linecap="round"/>
  
  <circle cx="15" cy="15" r="4" fill="white" stroke="#2563EB" stroke-width="2"/>
  <path d="M18 18L21 21" stroke="#2563EB" stroke-width="2" stroke-linecap="round"/>
  
  <path d="M9 6.5C9 6.5 9.5 6 10.5 6C11.5 6 12 6.5 12 7.25C12 8.5 9 8.25 9 9.5C9 10.25 9.5 10.75 10.5 10.75C11.5 10.75 12 10.25 12 10.25" stroke="#334155" stroke-width="1.5" stroke-linecap="round"/>
  <path d="M10.5 5.5V11.25" stroke="#334155" stroke-width="1.5" stroke-linecap="round"/>
</svg>
