<svg width="24" height="183" viewBox="0 0 24 183" fill="none" xmlns="http://www.w3.org/2000/svg">
<path d="M12.0742 175.723V179.346L10.2871 179.365V176.201C10.2871 175.667 10.209 175.215 10.0527 174.844C9.88997 174.466 9.65885 174.18 9.35938 173.984C9.05339 173.789 8.68555 173.691 8.25586 173.691C7.7806 173.691 7.39323 173.783 7.09375 173.965C6.79427 174.147 6.57617 174.427 6.43945 174.805C6.30273 175.176 6.23438 175.651 6.23438 176.23V178.604H18.5V181.055H4.28125V176.23C4.28125 175.449 4.35612 174.753 4.50586 174.141C4.6556 173.522 4.88997 172.998 5.20898 172.568C5.52148 172.132 5.91862 171.803 6.40039 171.582C6.88216 171.354 7.45508 171.24 8.11914 171.24C8.70508 171.24 9.24219 171.38 9.73047 171.66C10.2122 171.94 10.6061 172.354 10.9121 172.9C11.2181 173.447 11.4004 174.128 11.459 174.941L12.0742 175.723ZM18.5 175.83V180.117L16.5566 179.014V175.83C16.5566 175.277 16.4655 174.814 16.2832 174.443C16.0944 174.072 15.8372 173.796 15.5117 173.613C15.1797 173.424 14.7923 173.33 14.3496 173.33C13.8874 173.33 13.487 173.411 13.1484 173.574C12.8034 173.737 12.5397 173.994 12.3574 174.346C12.1686 174.697 12.0742 175.156 12.0742 175.723V178.477L10.2871 178.457V174.873L10.9609 174.316C10.987 173.535 11.1595 172.894 11.4785 172.393C11.7975 171.885 12.2109 171.507 12.7188 171.26C13.2266 171.012 13.7734 170.889 14.3594 170.889C15.2643 170.889 16.0228 171.087 16.6348 171.484C17.2467 171.875 17.7122 172.438 18.0312 173.174C18.3438 173.91 18.5 174.795 18.5 175.83ZM16.3809 162.695H11.3418C10.9642 162.695 10.6387 162.764 10.3652 162.9C10.0918 163.037 9.88021 163.245 9.73047 163.525C9.58073 163.799 9.50586 164.144 9.50586 164.561C9.50586 164.945 9.57096 165.277 9.70117 165.557C9.83138 165.837 10.0072 166.055 10.2285 166.211C10.4499 166.367 10.7005 166.445 10.9805 166.445L10.9805 168.789C10.5638 168.789 10.1602 168.688 9.76953 168.486C9.37891 168.285 9.0306 167.992 8.72461 167.607C8.41862 167.223 8.17773 166.764 8.00195 166.23C7.82617 165.697 7.73828 165.098 7.73828 164.434C7.73828 163.639 7.87174 162.936 8.13867 162.324C8.4056 161.706 8.80924 161.221 9.34961 160.869C9.88346 160.511 10.554 160.332 11.3613 160.332H16.0586C16.5404 160.332 16.9733 160.299 17.3574 160.234C17.735 160.163 18.0638 160.062 18.3438 159.932H18.5V162.344C18.2461 162.454 17.9238 162.542 17.5332 162.607C17.1361 162.666 16.752 162.695 16.3809 162.695ZM12.0742 162.354L13.5293 162.334V164.023C13.5293 164.46 13.5716 164.844 13.6563 165.176C13.7344 165.508 13.8516 165.785 14.0078 166.006C14.1641 166.227 14.3529 166.393 14.5742 166.504C14.7956 166.615 15.0462 166.67 15.3262 166.67C15.6061 166.67 15.8633 166.605 16.0977 166.475C16.3255 166.344 16.5046 166.156 16.6348 165.908C16.765 165.654 16.8301 165.348 16.8301 164.99C16.8301 164.508 16.7324 164.089 16.5371 163.73C16.3353 163.366 16.0911 163.079 15.8047 162.871C15.5117 162.663 15.235 162.552 14.9746 162.539L16.0195 161.777C16.2865 161.855 16.5729 161.989 16.8789 162.178C17.1849 162.367 17.4779 162.614 17.7578 162.92C18.0312 163.219 18.2559 163.581 18.4316 164.004C18.6074 164.421 18.6953 164.902 18.6953 165.449C18.6953 166.139 18.5586 166.755 18.2852 167.295C18.0052 167.835 17.6309 168.258 17.1621 168.564C16.6868 168.87 16.1497 169.023 15.5508 169.023C14.9909 169.023 14.4961 168.919 14.0664 168.711C13.6302 168.496 13.2656 168.184 12.9727 167.773C12.6797 167.357 12.4583 166.849 12.3086 166.25C12.1523 165.651 12.0742 164.967 12.0742 164.199V162.354ZM16.8203 153.555C16.8203 153.171 16.7454 152.826 16.5957 152.52C16.4395 152.207 16.2246 151.956 15.9512 151.768C15.6777 151.572 15.362 151.465 15.0039 151.445V149.229C15.6875 149.242 16.3092 149.443 16.8691 149.834C17.429 150.225 17.875 150.742 18.207 151.387C18.5326 152.031 18.6953 152.744 18.6953 153.525C18.6953 154.333 18.5586 155.036 18.2852 155.635C18.0052 156.234 17.6211 156.732 17.1328 157.129C16.6445 157.526 16.0814 157.826 15.4434 158.027C14.8053 158.223 14.1217 158.32 13.3926 158.32H13.0508C12.3216 158.32 11.638 158.223 11 158.027C10.3555 157.826 9.78906 157.526 9.30078 157.129C8.8125 156.732 8.43164 156.234 8.1582 155.635C7.87826 155.036 7.73828 154.336 7.73828 153.535C7.73828 152.689 7.90755 151.947 8.24609 151.309C8.57813 150.671 9.04362 150.169 9.64258 149.805C10.235 149.434 10.9251 149.242 11.7129 149.229V151.445C11.3223 151.465 10.9707 151.562 10.6582 151.738C10.3392 151.908 10.0853 152.148 9.89648 152.461C9.70768 152.767 9.61328 153.135 9.61328 153.564C9.61328 154.04 9.71094 154.434 9.90625 154.746C10.0951 155.059 10.3555 155.303 10.6875 155.479C11.013 155.654 11.3809 155.781 11.791 155.859C12.1947 155.931 12.6146 155.967 13.0508 155.967H13.3926C13.8288 155.967 14.252 155.931 14.6621 155.859C15.0723 155.788 15.4401 155.664 15.7656 155.488C16.0846 155.306 16.3418 155.059 16.5371 154.746C16.7259 154.434 16.8203 154.036 16.8203 153.555ZM3.5 145.049H18.5V147.412H3.5V145.049ZM7.93359 138.486L13.0313 143.086L15.6094 145.605L13.6172 146.221L11.2637 144.316L7.93359 141.328V138.486ZM18.5 140.82L13.5391 144.248L11.8887 142.764L18.5 138.096V140.82ZM7.93359 127.168H9.65234V133.125H7.93359L7.93359 127.168ZM5.3457 131.406V129.053H15.5801C15.9056 129.053 16.1563 129.007 16.332 128.916C16.5013 128.818 16.6152 128.685 16.6738 128.516C16.7324 128.346 16.7617 128.148 16.7617 127.92C16.7617 127.757 16.752 127.601 16.7324 127.451C16.7129 127.301 16.6934 127.181 16.6738 127.09L18.4707 127.08C18.5293 127.275 18.5814 127.503 18.627 127.764C18.6725 128.018 18.6953 128.311 18.6953 128.643C18.6953 129.183 18.6009 129.661 18.4121 130.078C18.2168 130.495 17.901 130.82 17.4648 131.055C17.0286 131.289 16.4492 131.406 15.7266 131.406H5.3457ZM13.334 126.035H13.1094C12.3477 126.035 11.6413 125.924 10.9902 125.703C10.3327 125.482 9.76302 125.163 9.28125 124.746C8.79297 124.323 8.41536 123.809 8.14844 123.203C7.875 122.591 7.73828 121.901 7.73828 121.133C7.73828 120.358 7.875 119.668 8.14844 119.062C8.41536 118.451 8.79297 117.933 9.28125 117.51C9.76302 117.087 10.3327 116.764 10.9902 116.543C11.6413 116.322 12.3477 116.211 13.1094 116.211H13.334C14.0957 116.211 14.8021 116.322 15.4531 116.543C16.1042 116.764 16.6738 117.087 17.1621 117.51C17.6439 117.933 18.0215 118.447 18.2949 119.053C18.5618 119.658 18.6953 120.345 18.6953 121.113C18.6953 121.888 18.5618 122.581 18.2949 123.193C18.0215 123.799 17.6439 124.313 17.1621 124.736C16.6738 125.16 16.1042 125.482 15.4531 125.703C14.8021 125.924 14.0957 126.035 13.334 126.035ZM13.1094 123.682H13.334C13.8092 123.682 14.2585 123.633 14.6816 123.535C15.1048 123.438 15.4759 123.285 15.7949 123.076C16.1139 122.868 16.3646 122.601 16.5469 122.275C16.7292 121.95 16.8203 121.562 16.8203 121.113C16.8203 120.677 16.7292 120.299 16.5469 119.98C16.3646 119.655 16.1139 119.388 15.7949 119.18C15.4759 118.971 15.1048 118.818 14.6816 118.721C14.2585 118.617 13.8092 118.564 13.334 118.564H13.1094C12.6406 118.564 12.1979 118.617 11.7813 118.721C11.3581 118.818 10.9837 118.975 10.6582 119.189C10.3327 119.398 10.0788 119.665 9.89648 119.99C9.70768 120.309 9.61328 120.69 9.61328 121.133C9.61328 121.576 9.70768 121.96 9.89648 122.285C10.0788 122.604 10.3327 122.868 10.6582 123.076C10.9837 123.285 11.3581 123.438 11.7813 123.535C12.1979 123.633 12.6406 123.682 13.1094 123.682ZM7.93359 104.414H9.65234L9.65234 110.371H7.93359V104.414ZM5.3457 108.652V106.299H15.5801C15.9056 106.299 16.1563 106.253 16.332 106.162C16.5013 106.064 16.6152 105.931 16.6738 105.762C16.7324 105.592 16.7617 105.394 16.7617 105.166C16.7617 105.003 16.752 104.847 16.7324 104.697C16.7129 104.548 16.6934 104.427 16.6738 104.336L18.4707 104.326C18.5293 104.521 18.5814 104.749 18.627 105.01C18.6725 105.264 18.6953 105.557 18.6953 105.889C18.6953 106.429 18.6009 106.908 18.4121 107.324C18.2168 107.741 17.901 108.066 17.4648 108.301C17.0286 108.535 16.4492 108.652 15.7266 108.652H5.3457ZM13.334 103.281H13.1094C12.3477 103.281 11.6413 103.171 10.9902 102.949C10.3327 102.728 9.76302 102.409 9.28125 101.992C8.79297 101.569 8.41536 101.055 8.14844 100.449C7.875 99.8372 7.73828 99.1471 7.73828 98.3789C7.73828 97.6042 7.875 96.9141 8.14844 96.3086C8.41536 95.6966 8.79297 95.179 9.28125 94.7559C9.76302 94.3327 10.3327 94.0104 10.9902 93.7891C11.6413 93.5677 12.3477 93.457 13.1094 93.457H13.334C14.0957 93.457 14.8021 93.5677 15.4531 93.7891C16.1042 94.0104 16.6738 94.3327 17.1621 94.7559C17.6439 95.179 18.0215 95.6934 18.2949 96.2988C18.5618 96.9043 18.6953 97.5911 18.6953 98.3594C18.6953 99.1341 18.5618 99.8275 18.2949 100.439C18.0215 101.045 17.6439 101.559 17.1621 101.982C16.6738 102.406 16.1042 102.728 15.4531 102.949C14.8021 103.171 14.0957 103.281 13.334 103.281ZM13.1094 100.928H13.334C13.8092 100.928 14.2585 100.879 14.6816 100.781C15.1048 100.684 15.4759 100.531 15.7949 100.322C16.1139 100.114 16.3646 99.847 16.5469 99.5215C16.7292 99.196 16.8203 98.8086 16.8203 98.3594C16.8203 97.9232 16.7292 97.5456 16.5469 97.2266C16.3646 96.901 16.1139 96.6341 15.7949 96.4258C15.4759 96.2174 15.1048 96.0645 14.6816 95.9668C14.2585 95.8626 13.8092 95.8105 13.334 95.8105H13.1094C12.6406 95.8105 12.1979 95.8626 11.7813 95.9668C11.3581 96.0645 10.9837 96.2207 10.6582 96.4355C10.3327 96.6439 10.0788 96.9108 9.89648 97.2363C9.70768 97.5553 9.61328 97.9362 9.61328 98.3789C9.61328 98.8216 9.70768 99.2057 9.89648 99.5312C10.0788 99.8503 10.3327 100.114 10.6582 100.322C10.9837 100.531 11.3581 100.684 11.7813 100.781C12.1979 100.879 12.6406 100.928 13.1094 100.928ZM9.96484 89.1211H22.5625V91.4746H7.93359V89.3066L9.96484 89.1211ZM13.1191 82.2363H13.3242C14.0924 82.2363 14.8053 82.3275 15.4629 82.5098C16.1139 82.6855 16.6836 82.9492 17.1719 83.3008C17.6536 83.6458 18.028 84.0723 18.2949 84.5801C18.5618 85.0879 18.6953 85.6738 18.6953 86.3379C18.6953 86.9954 18.5749 87.5716 18.334 88.0664C18.0866 88.5547 17.7383 88.9681 17.2891 89.3066C16.8398 89.6452 16.3125 89.9186 15.707 90.127C15.0951 90.3288 14.4245 90.472 13.6953 90.5566H12.9043C12.1296 90.472 11.4264 90.3288 10.7949 90.127C10.1634 89.9186 9.61979 89.6452 9.16406 89.3066C8.70833 88.9681 8.35677 88.5547 8.10938 88.0664C7.86198 87.5781 7.73828 87.0085 7.73828 86.3574C7.73828 85.6934 7.86849 85.1042 8.12891 84.5898C8.38281 84.0755 8.7474 83.6426 9.22266 83.291C9.69141 82.9395 10.2578 82.6758 10.9219 82.5C11.5794 82.3242 12.3118 82.2363 13.1191 82.2363ZM13.3242 84.5898H13.1191C12.6309 84.5898 12.1784 84.6354 11.7617 84.7266C11.3385 84.8177 10.9674 84.9609 10.6484 85.1562C10.3294 85.3516 10.082 85.6022 9.90625 85.9082C9.72396 86.2077 9.63281 86.569 9.63281 86.9922C9.63281 87.4089 9.70443 87.7669 9.84766 88.0664C9.98438 88.3659 10.1764 88.6165 10.4238 88.8184C10.6712 89.0202 10.9609 89.1764 11.293 89.2871C11.6185 89.3978 11.9733 89.4759 12.3574 89.5215H14.252C14.7207 89.4434 15.1504 89.3099 15.541 89.1211C15.9316 88.9323 16.2441 88.6654 16.4785 88.3203C16.7064 87.9688 16.8203 87.5195 16.8203 86.9727C16.8203 86.5495 16.7292 86.1882 16.5469 85.8887C16.3646 85.5892 16.1139 85.3451 15.7949 85.1562C15.4694 84.9609 15.0951 84.8177 14.6719 84.7266C14.2487 84.6354 13.7995 84.5898 13.3242 84.5898Z" fill="white"/>
<path d="M11.5 75L11.5 3" stroke="white" stroke-width="2.3"/>
<path d="M5.5 11L11.5 2.5L19 11" stroke="white" stroke-width="2.3"/>
</svg>
