<svg width="1019" height="429" viewBox="0 0 1019 429" fill="none" xmlns="http://www.w3.org/2000/svg">
<path fill-rule="evenodd" clip-rule="evenodd" d="M300.576 299.142C328.058 368.806 392.388 429 504.594 429C605.879 429 679.786 376.283 712.274 299.142H646.045C623.301 389.35 558.699 401.703 527.524 401.703C456.801 401.703 405.215 360.697 379.137 299.142H300.576ZM292.783 155.12C314.324 77.0477 380.006 0.979004 510.053 0.979004C626.831 0.979004 705.739 59.3964 725.664 155.12H645.445C623.951 74.6981 565.068 27.1844 494.221 27.1844C438.649 27.1844 376.233 54.5592 362.627 155.12H292.783Z" fill="black"/>
<path d="M347.222 260.685V269.031C347.222 275.924 347.41 278.925 348.254 279.769C349.004 280.52 350.223 280.848 353.881 280.848C356.366 280.848 358.429 280.801 359.555 279.441C360.164 278.691 360.633 277.519 360.774 276.628C360.821 276.253 360.915 276.018 361.196 276.018C361.43 276.018 361.477 276.206 361.477 276.722C361.477 277.237 361.149 280.051 360.774 281.411C360.446 282.489 360.305 282.677 357.82 282.677C353.787 282.677 349.801 282.395 345.253 282.395C343.799 282.395 342.393 282.536 340.658 282.536C340.142 282.536 339.907 282.442 339.907 282.161C339.907 282.02 340.001 281.88 340.283 281.88C340.705 281.88 341.267 281.786 341.689 281.692C342.627 281.504 342.862 280.473 343.049 279.113C343.284 277.144 343.284 273.439 343.284 268.938V260.685C343.284 253.37 343.284 252.057 343.19 250.556C343.096 248.962 342.721 248.212 341.174 247.884C340.798 247.79 340.001 247.743 339.579 247.743C339.392 247.743 339.204 247.649 339.204 247.462C339.204 247.18 339.439 247.086 339.954 247.086C342.064 247.086 345.019 247.227 345.253 247.227C345.487 247.227 348.911 247.086 350.317 247.086C350.833 247.086 351.068 247.18 351.068 247.462C351.068 247.649 350.88 247.743 350.692 247.743C350.364 247.743 349.708 247.79 349.145 247.884C347.785 248.118 347.41 248.915 347.316 250.556C347.222 252.057 347.222 253.37 347.222 260.685Z" fill="black"/>
<path d="M398.15 270.659H389.509C389.308 270.659 389.187 270.78 389.107 270.981L386.695 278.095C386.333 279.1 386.132 280.064 386.132 280.788C386.132 281.591 386.896 281.953 387.579 281.953C387.7 281.953 387.821 281.953 387.941 281.953C388.343 281.953 388.464 282.034 388.464 282.194C388.464 282.436 388.102 282.516 387.74 282.516C386.776 282.516 385.168 282.395 384.726 282.395C384.284 282.395 382.073 282.516 380.184 282.516C379.662 282.516 379.42 282.436 379.42 282.194C379.42 282.034 379.621 281.953 379.983 281.953C380.264 281.953 380.626 281.913 380.948 281.873C382.796 281.632 383.6 280.104 384.324 278.095L393.447 253.135C393.93 251.809 394.091 251.568 394.332 251.568C394.573 251.568 394.734 251.769 395.216 253.015C395.819 254.542 402.129 271.142 404.581 277.251C406.028 280.828 407.193 281.471 408.037 281.712C408.64 281.913 409.283 281.953 409.605 281.953C409.846 281.953 410.047 281.993 410.047 282.194C410.047 282.436 409.685 282.516 409.243 282.516C408.64 282.516 405.706 282.516 402.933 282.436C402.169 282.395 401.727 282.395 401.727 282.154C401.727 281.993 401.848 281.913 402.008 281.873C402.25 281.792 402.491 281.431 402.25 280.788L398.512 270.9C398.431 270.74 398.351 270.659 398.15 270.659ZM389.951 269.212H397.627C397.828 269.212 397.828 269.092 397.788 268.931L393.97 258.079C393.769 257.476 393.568 257.476 393.367 258.079L389.83 268.931C389.75 269.132 389.83 269.212 389.951 269.212Z" fill="black"/>
<path d="M433.209 279.903L426.054 256.069C425.411 253.939 424.889 253.336 423.844 252.934C423.321 252.733 422.316 252.693 422.035 252.693C421.834 252.693 421.673 252.653 421.673 252.412C421.673 252.211 421.915 252.131 422.316 252.131C424.406 252.131 426.617 252.251 427.059 252.251C427.421 252.251 429.189 252.131 431.199 252.131C431.762 252.131 431.922 252.251 431.922 252.412C431.922 252.653 431.721 252.693 431.521 252.693C431.199 252.693 430.435 252.693 429.953 252.934C429.712 253.055 429.431 253.377 429.431 253.899C429.431 254.422 429.792 255.828 430.194 257.597C430.797 260.169 434.977 274.92 435.62 277.17L444.181 254.14C444.784 252.492 444.945 252.291 445.186 252.291C445.467 252.291 445.708 252.814 446.191 254.18L454.269 277.211C455.435 273.272 459.133 261.616 460.539 256.471C460.941 254.984 460.981 254.422 460.981 253.899C460.981 253.176 460.539 252.693 458.691 252.693C458.49 252.693 458.329 252.573 458.329 252.412C458.329 252.211 458.53 252.131 459.012 252.131C461.062 252.131 462.75 252.251 463.112 252.251C463.393 252.251 465.121 252.131 466.367 252.131C466.729 252.131 466.93 252.211 466.93 252.372C466.93 252.573 466.809 252.693 466.568 252.693C466.407 252.693 465.644 252.733 465.202 252.894C463.996 253.336 463.353 255.024 462.589 257.235C460.821 262.339 456.761 275.121 455.194 279.622C454.149 282.596 453.948 283.079 453.506 283.079C453.104 283.079 452.863 282.556 452.3 280.989L444.382 258.521C442.895 262.5 437.389 277.211 435.942 280.948C435.299 282.636 435.017 283.079 434.615 283.079C434.213 283.079 434.012 282.636 433.209 279.903Z" fill="black"/>
<path d="M517.451 268.937V260.684C517.451 253.369 517.451 252.057 517.357 250.556C517.263 248.962 516.888 248.211 515.341 247.883C515.059 247.836 514.59 247.836 514.168 247.789C513.746 247.743 513.371 247.696 513.371 247.461C513.371 247.18 513.606 247.086 514.121 247.086C515.95 247.086 517.732 247.227 519.42 247.227C520.358 247.227 529.877 247.227 530.955 247.18C532.034 247.133 532.878 247.133 533.253 246.899C533.394 246.805 533.581 246.711 533.675 246.711C533.862 246.711 533.956 246.899 533.956 247.133C533.956 247.367 533.769 248.024 533.675 248.587C533.487 249.946 533.487 250.697 533.394 252.01C533.394 252.572 533.159 252.947 532.972 252.947C532.737 252.947 532.69 252.76 532.643 252.338C532.596 251.681 532.409 250.556 531.752 249.993C531.19 249.524 530.346 249.149 528.986 249.102C526.594 249.055 524.203 249.009 521.811 248.962C521.53 248.962 521.389 249.102 521.389 249.478V262.419C521.389 262.701 521.436 262.841 521.718 262.841C523.64 262.841 526.313 262.841 528.236 262.795C530.721 262.748 531.33 262.701 531.987 261.904C532.221 261.622 532.315 261.435 532.503 261.435C532.69 261.435 532.737 261.575 532.737 261.81C532.737 262.091 532.503 262.888 532.362 264.436C532.221 265.842 532.221 266.968 532.174 267.671C532.127 268.187 532.081 268.468 531.846 268.468C531.565 268.468 531.518 268.14 531.471 267.671C531.377 266.64 531.237 264.998 528.798 264.67C527.626 264.53 522.515 264.53 521.718 264.53C521.483 264.53 521.389 264.623 521.389 264.952V268.937C521.389 272.923 521.389 276.252 521.53 278.409C521.671 280.519 522.187 281.551 523.453 281.692C524.062 281.785 524.859 281.832 525.375 281.879C525.797 281.926 525.938 282.02 525.938 282.207C525.938 282.442 525.703 282.536 525.188 282.536C522.562 282.536 519.654 282.395 519.42 282.395H518.998C518.06 282.442 515.95 282.536 514.825 282.536C514.309 282.536 514.074 282.442 514.074 282.161C514.074 282.02 514.168 281.926 514.59 281.879C515.059 281.832 515.481 281.785 515.809 281.692C516.794 281.41 517.122 280.707 517.263 278.644C517.404 276.627 517.451 273.345 517.451 268.937Z" fill="black"/>
<path d="M561.827 270.86V263.786C561.827 257.516 561.827 256.391 561.746 255.104C561.666 253.738 561.264 253.055 560.38 252.854C559.938 252.733 559.415 252.693 559.134 252.693C558.973 252.693 558.812 252.613 558.812 252.452C558.812 252.211 559.013 252.13 559.455 252.13C560.782 252.13 563.314 252.251 563.515 252.251C563.716 252.251 566.248 252.13 567.454 252.13C567.896 252.13 568.097 252.211 568.097 252.452C568.097 252.613 567.936 252.693 567.775 252.693C567.494 252.693 567.253 252.733 566.77 252.813C565.685 253.014 565.364 253.698 565.283 255.104C565.203 256.391 565.203 257.516 565.203 263.786V270.86C565.203 274.718 565.203 277.893 565.404 279.582C565.524 280.747 565.766 281.631 566.971 281.792C567.534 281.872 568.378 281.953 568.619 281.953C568.981 281.953 569.102 282.073 569.102 282.194C569.102 282.395 568.941 282.516 568.499 282.516C566.288 282.516 563.716 282.395 563.515 282.395C563.314 282.395 560.782 282.516 559.576 282.516C559.134 282.516 558.933 282.435 558.933 282.194C558.933 282.073 559.013 281.953 559.375 281.953C559.616 281.953 560.058 281.913 560.42 281.832C561.224 281.672 561.465 280.747 561.626 279.582C561.827 277.893 561.827 274.718 561.827 270.86Z" fill="black"/>
<path d="M594.802 270.86V263.786C594.802 257.516 594.802 256.391 594.721 255.104C594.641 253.738 594.319 253.095 592.993 252.813C592.672 252.733 591.988 252.693 591.627 252.693C591.466 252.693 591.305 252.613 591.305 252.452C591.305 252.211 591.506 252.13 591.948 252.13C593.757 252.13 596.289 252.251 596.49 252.251C596.932 252.251 599.987 252.13 601.232 252.13C603.765 252.13 606.457 252.371 608.588 253.899C609.592 254.622 611.361 256.592 611.361 259.365C611.361 262.339 610.115 265.313 606.498 268.649C609.793 272.869 612.526 276.447 614.858 278.938C617.028 281.229 618.756 281.672 619.761 281.832C620.525 281.953 621.087 281.953 621.329 281.953C621.53 281.953 621.69 282.073 621.69 282.194C621.69 282.435 621.449 282.516 620.726 282.516H617.872C615.621 282.516 614.616 282.315 613.571 281.752C611.843 280.827 610.437 278.858 608.146 275.844C606.457 273.633 604.568 270.94 603.765 269.895C603.604 269.734 603.483 269.654 603.242 269.654L598.298 269.574C598.097 269.574 598.017 269.694 598.017 269.895V270.86C598.017 274.718 598.017 277.893 598.218 279.582C598.339 280.747 598.58 281.631 599.786 281.792C600.348 281.872 601.232 281.953 601.594 281.953C601.835 281.953 601.916 282.073 601.916 282.194C601.916 282.395 601.715 282.516 601.273 282.516C599.062 282.516 596.53 282.395 596.329 282.395C596.289 282.395 593.757 282.516 592.551 282.516C592.109 282.516 591.908 282.435 591.908 282.194C591.908 282.073 591.988 281.953 592.229 281.953C592.591 281.953 593.073 281.872 593.435 281.792C594.239 281.631 594.44 280.747 594.601 279.582C594.802 277.893 594.802 274.718 594.802 270.86ZM598.017 254.14V267.283C598.017 267.484 598.097 267.644 598.298 267.765C598.901 268.127 600.75 268.408 602.519 268.408C603.483 268.408 604.609 268.287 605.533 267.644C606.94 266.68 607.985 264.509 607.985 261.455C607.985 256.431 605.332 253.416 601.032 253.416C599.826 253.416 598.741 253.537 598.339 253.658C598.138 253.738 598.017 253.899 598.017 254.14Z" fill="black"/>
<path d="M667.586 252.653L670.279 277.331C670.44 278.778 670.721 281.028 672.449 281.591C673.615 281.953 674.539 281.953 674.941 281.953C675.142 281.953 675.383 281.993 675.383 282.194C675.383 282.435 675.263 282.516 674.781 282.516C673.896 282.516 669.314 282.395 667.827 282.274C666.903 282.194 666.702 282.073 666.702 281.872C666.702 281.712 666.782 281.672 666.983 281.591C667.265 281.471 667.224 280.868 667.144 280.144L665.215 259.164L655.247 280.305C654.403 282.073 654.283 282.435 653.921 282.435C653.639 282.435 653.438 282.033 652.675 280.586C651.63 278.617 648.173 271.664 647.972 271.262C647.611 270.538 642.988 260.611 642.546 259.526L640.898 278.456C640.858 279.099 640.818 279.662 640.818 280.345C640.818 281.35 641.3 281.672 641.903 281.792C642.587 281.953 643.109 281.953 643.35 281.953C643.591 281.953 643.752 282.033 643.752 282.154C643.752 282.435 643.551 282.516 643.149 282.516C641.662 282.516 639.612 282.395 639.291 282.395C638.929 282.395 637 282.516 635.915 282.516C635.513 282.516 635.231 282.475 635.231 282.194C635.231 282.033 635.432 281.953 635.633 281.953C635.955 281.953 636.236 281.953 636.839 281.832C638.165 281.591 638.246 280.144 638.447 278.496L641.341 252.371C641.381 251.929 641.542 251.568 641.783 251.568C642.024 251.568 642.185 251.728 642.386 252.17L654.684 277.451L666.501 252.211C666.662 251.849 666.823 251.568 667.104 251.568C667.385 251.568 667.506 251.889 667.586 252.653Z" fill="black"/>
<path d="M233.457 233.237C215.193 233.237 207.811 219.555 207.811 208.291C207.811 197.409 215.002 183.345 234.093 183.345C249.939 183.345 259.803 192.572 259.803 207.145C259.803 221.718 249.621 233.237 233.457 233.237ZM236.129 230.055C240.584 230.055 250.893 227.891 250.893 209.5C250.893 195.245 242.684 186.399 232.247 186.399C224.929 186.399 216.593 190.472 216.593 206.318C216.593 219.555 223.911 230.055 236.129 230.055Z" fill="black"/>
<path d="M311.819 189.792L317.001 224.981C317.513 228.568 318.083 230.219 319.791 230.731C321.442 231.244 322.581 231.301 323.321 231.301C323.834 231.301 324.232 231.358 324.232 231.699C324.232 232.155 323.549 232.326 322.752 232.326C321.328 232.326 313.471 232.155 311.193 231.984C309.884 231.87 309.542 231.699 309.542 231.358C309.542 231.073 309.77 230.902 310.168 230.731C310.51 230.618 310.681 229.877 310.453 228.283L306.98 202.888L294.396 229.08C293.087 231.756 292.802 232.269 292.289 232.269C291.777 232.269 291.208 231.13 290.296 229.422C288.93 226.803 284.432 218.091 283.748 216.497C283.236 215.301 279.649 207.728 277.656 203.458L274.638 226.518C274.524 227.543 274.467 228.283 274.467 229.194C274.467 230.276 275.208 230.788 276.176 231.016C277.201 231.244 277.998 231.301 278.567 231.301C279.023 231.301 279.421 231.415 279.421 231.699C279.421 232.212 278.909 232.326 278.055 232.326C275.663 232.326 273.101 232.155 272.076 232.155C270.994 232.155 268.261 232.326 266.439 232.326C265.87 232.326 265.414 232.212 265.414 231.699C265.414 231.415 265.756 231.301 266.325 231.301C266.781 231.301 267.179 231.301 268.033 231.13C269.628 230.788 270.083 228.568 270.368 226.632L276.005 189.508C276.176 188.54 276.517 188.027 276.973 188.027C277.428 188.027 277.77 188.312 278.51 189.792L294.054 221.906L309.542 189.394C309.997 188.483 310.282 188.027 310.795 188.027C311.307 188.027 311.649 188.597 311.819 189.792Z" fill="black"/>
<path d="M349.953 217.465H337.256C336.971 217.465 336.858 217.578 336.744 217.92L333.669 226.062C333.1 227.486 332.815 228.852 332.815 229.536C332.815 230.561 333.327 231.301 335.092 231.301C335.377 231.301 335.719 231.301 335.946 231.301C336.63 231.301 336.801 231.415 336.801 231.756C336.801 232.212 336.459 232.326 335.833 232.326C334.011 232.326 331.562 232.155 329.797 232.155C329.171 232.155 326.039 232.326 323.078 232.326C322.338 232.326 321.996 232.212 321.996 231.756C321.996 231.415 322.338 231.301 322.794 231.301C323.306 231.301 323.989 231.244 324.445 231.187C327.064 230.845 328.146 228.909 329.285 226.062L343.576 190.305C344.26 188.653 344.658 188.027 345.171 188.027C345.626 188.027 346.025 188.54 346.594 189.849C347.961 192.981 357.071 216.212 360.715 224.867C362.879 229.991 364.53 230.788 365.726 231.073C366.58 231.244 367.434 231.301 368.117 231.301C368.573 231.301 368.857 231.415 368.857 231.756C368.857 232.212 368.345 232.326 366.238 232.326C364.188 232.326 359.633 232.326 355.078 232.212C354.053 232.155 353.768 232.098 353.768 231.756C353.768 231.472 353.996 231.301 354.566 231.244C354.964 231.13 355.363 230.618 355.078 229.934L350.523 217.863C350.409 217.578 350.238 217.465 349.953 217.465ZM338.395 214.618H348.872C349.156 214.618 349.213 214.447 349.156 214.276L344.032 200.212C343.861 199.7 343.633 199.529 343.406 200.212L338.167 214.219C338.11 214.447 338.167 214.618 338.395 214.618Z" fill="black"/>
<path d="M375.986 215.813V205.792C375.986 197.137 375.986 195.543 375.872 193.721C375.758 191.785 375.303 190.874 373.424 190.476C372.968 190.362 372 190.305 371.203 190.305C370.577 190.305 370.235 190.191 370.235 189.792C370.235 189.394 370.633 189.28 371.488 189.28C374.505 189.28 378.093 189.451 379.288 189.451C381.224 189.451 385.552 189.28 387.317 189.28C390.904 189.28 394.719 189.621 397.793 191.728C399.388 192.81 401.665 195.714 401.665 199.529C401.665 203.742 399.957 207.557 394.206 212.226C399.274 218.603 403.203 223.728 406.562 227.258C409.751 230.561 412.028 230.959 412.882 231.13C413.509 231.244 414.021 231.301 414.477 231.301C414.932 231.301 415.16 231.472 415.16 231.756C415.16 232.212 414.761 232.326 414.078 232.326H408.498C405.309 232.326 403.886 232.041 402.406 231.244C399.957 229.934 397.793 227.258 394.605 222.874C392.327 219.742 389.708 215.87 388.968 215.016C388.683 214.675 388.342 214.618 387.943 214.618L383.16 214.504C382.875 214.504 382.705 214.618 382.705 214.959V215.756C382.705 221.052 382.705 225.55 382.989 227.941C383.16 229.593 383.502 230.845 385.21 231.073C386.064 231.187 387.317 231.301 388 231.301C388.455 231.301 388.683 231.472 388.683 231.756C388.683 232.155 388.285 232.326 387.544 232.326C384.242 232.326 380.028 232.155 379.174 232.155C378.093 232.155 374.505 232.326 372.228 232.326C371.488 232.326 371.089 232.155 371.089 231.756C371.089 231.472 371.317 231.301 372 231.301C372.854 231.301 373.537 231.187 374.05 231.073C375.189 230.845 375.473 229.593 375.701 227.941C375.986 225.55 375.986 221.052 375.986 215.813ZM382.705 192.981V210.29C382.705 210.917 382.818 211.144 383.217 211.315C384.413 211.714 386.121 211.885 387.544 211.885C389.822 211.885 390.562 211.657 391.587 210.917C393.295 209.664 394.946 207.045 394.946 202.376C394.946 194.29 389.594 191.956 386.235 191.956C384.811 191.956 383.786 192.013 383.217 192.184C382.818 192.298 382.705 192.525 382.705 192.981Z" fill="black"/>
<path d="M455.892 215.736H441.7C441.382 215.736 441.255 215.863 441.128 216.245L437.691 225.345C437.055 226.936 436.737 228.464 436.737 229.227C436.737 230.373 437.309 231.2 439.282 231.2C439.6 231.2 439.982 231.2 440.237 231.2C441 231.2 441.191 231.327 441.191 231.709C441.191 232.218 440.81 232.346 440.109 232.346C438.073 232.346 435.337 232.155 433.364 232.155C432.664 232.155 429.164 232.346 425.855 232.346C425.027 232.346 424.646 232.218 424.646 231.709C424.646 231.327 425.027 231.2 425.536 231.2C426.109 231.2 426.873 231.137 427.382 231.073C430.309 230.691 431.518 228.527 432.791 225.345L448.764 185.381C449.528 183.535 449.973 182.835 450.546 182.835C451.055 182.835 451.501 183.408 452.137 184.872C453.664 188.372 463.846 214.336 467.919 224.009C470.337 229.736 472.183 230.627 473.519 230.946C474.474 231.137 475.428 231.2 476.192 231.2C476.701 231.2 477.019 231.327 477.019 231.709C477.019 232.218 476.447 232.346 474.092 232.346C471.801 232.346 466.71 232.346 461.619 232.218C460.474 232.155 460.155 232.091 460.155 231.709C460.155 231.391 460.41 231.2 461.046 231.137C461.492 231.009 461.937 230.437 461.619 229.673L456.528 216.182C456.401 215.863 456.21 215.736 455.892 215.736ZM442.973 212.554H454.683C455.001 212.554 455.064 212.363 455.001 212.172L449.273 196.454C449.082 195.881 448.828 195.69 448.573 196.454L442.719 212.109C442.655 212.363 442.719 212.554 442.973 212.554Z" fill="black"/>
<path d="M491.005 205.792V215.813C491.005 223.101 491.005 227.03 492.201 228.055C493.169 228.909 494.649 229.308 499.091 229.308C502.108 229.308 504.329 229.251 505.753 227.713C506.436 226.973 507.119 225.379 507.233 224.297C507.29 223.785 507.404 223.443 507.859 223.443C508.258 223.443 508.315 223.728 508.315 224.411C508.315 225.037 507.916 229.308 507.461 230.959C507.119 232.212 506.834 232.496 503.874 232.496C498.635 232.496 493.397 232.155 487.304 232.155C485.027 232.155 482.692 232.326 480.13 232.326C479.39 232.326 478.991 232.155 478.991 231.756C478.991 231.471 479.219 231.301 479.902 231.301C480.756 231.301 481.44 231.187 481.952 231.073C483.091 230.845 483.376 229.592 483.603 227.941C483.888 225.55 483.888 221.052 483.888 215.813V205.792C483.888 197.137 483.888 195.543 483.774 193.721C483.66 191.785 483.205 190.874 481.326 190.475C480.87 190.361 480.187 190.305 479.447 190.305C478.82 190.305 478.479 190.191 478.479 189.792C478.479 189.393 478.877 189.28 479.731 189.28C482.408 189.28 485.995 189.45 487.532 189.45C488.899 189.45 493.055 189.28 495.276 189.28C496.073 189.28 496.471 189.393 496.471 189.792C496.471 190.191 496.13 190.305 495.447 190.305C494.82 190.305 493.909 190.361 493.226 190.475C491.689 190.76 491.233 191.728 491.119 193.721C491.005 195.543 491.005 197.137 491.005 205.792Z" fill="black"/>
<path d="M518.278 215.813V205.792C518.278 197.137 518.278 195.543 518.164 193.721C518.05 191.785 517.595 190.874 515.716 190.475C515.26 190.361 514.293 190.305 513.495 190.305C512.869 190.305 512.527 190.191 512.527 189.792C512.527 189.393 512.926 189.28 513.78 189.28C516.798 189.28 520.385 189.45 521.581 189.45C523.517 189.45 527.844 189.28 529.609 189.28C533.196 189.28 537.011 189.621 540.086 191.728C541.68 192.81 543.958 195.714 543.958 199.529C543.958 203.742 542.25 207.557 536.499 212.226C541.566 218.603 545.495 223.728 548.855 227.258C552.043 230.56 554.321 230.959 555.175 231.13C555.801 231.244 556.314 231.301 556.769 231.301C557.225 231.301 557.452 231.471 557.452 231.756C557.452 232.212 557.054 232.326 556.37 232.326H550.79C547.602 232.326 546.178 232.041 544.698 231.244C542.25 229.934 540.086 227.258 536.897 222.874C534.62 219.742 532.001 215.87 531.26 215.016C530.976 214.674 530.634 214.617 530.235 214.617L525.453 214.504C525.168 214.504 524.997 214.617 524.997 214.959V215.756C524.997 221.052 524.997 225.55 525.282 227.941C525.453 229.592 525.794 230.845 527.502 231.073C528.356 231.187 529.609 231.301 530.292 231.301C530.748 231.301 530.976 231.471 530.976 231.756C530.976 232.155 530.577 232.326 529.837 232.326C526.534 232.326 522.321 232.155 521.467 232.155C520.385 232.155 516.798 232.326 514.52 232.326C513.78 232.326 513.381 232.155 513.381 231.756C513.381 231.471 513.609 231.301 514.293 231.301C515.147 231.301 515.83 231.187 516.342 231.073C517.481 230.845 517.766 229.592 517.994 227.941C518.278 225.55 518.278 221.052 518.278 215.813ZM524.997 192.981V210.29C524.997 210.916 525.111 211.144 525.51 211.315C526.705 211.714 528.413 211.884 529.837 211.884C532.114 211.884 532.855 211.657 533.88 210.916C535.588 209.664 537.239 207.045 537.239 202.376C537.239 194.29 531.887 191.956 528.527 191.956C527.104 191.956 526.079 192.013 525.51 192.184C525.111 192.297 524.997 192.525 524.997 192.981Z" fill="black"/>
<path d="M579.32 217.464H566.623C566.338 217.464 566.225 217.578 566.111 217.92L563.036 226.062C562.467 227.486 562.182 228.852 562.182 229.536C562.182 230.56 562.694 231.301 564.459 231.301C564.744 231.301 565.086 231.301 565.313 231.301C565.997 231.301 566.168 231.415 566.168 231.756C566.168 232.212 565.826 232.326 565.2 232.326C563.378 232.326 560.929 232.155 559.164 232.155C558.538 232.155 555.406 232.326 552.445 232.326C551.705 232.326 551.363 232.212 551.363 231.756C551.363 231.415 551.705 231.301 552.161 231.301C552.673 231.301 553.356 231.244 553.812 231.187C556.431 230.845 557.513 228.909 558.652 226.062L572.943 190.305C573.627 188.653 574.025 188.027 574.538 188.027C574.993 188.027 575.392 188.539 575.961 189.849C577.328 192.981 586.438 216.212 590.082 224.867C592.246 229.991 593.897 230.788 595.093 231.073C595.947 231.244 596.801 231.301 597.484 231.301C597.94 231.301 598.224 231.415 598.224 231.756C598.224 232.212 597.712 232.326 595.605 232.326C593.555 232.326 589 232.326 584.445 232.212C583.42 232.155 583.135 232.098 583.135 231.756C583.135 231.471 583.363 231.301 583.933 231.244C584.331 231.13 584.73 230.617 584.445 229.934L579.89 217.863C579.776 217.578 579.605 217.464 579.32 217.464ZM567.762 214.617H578.239C578.523 214.617 578.58 214.447 578.523 214.276L573.399 200.212C573.228 199.699 573 199.529 572.773 200.212L567.534 214.219C567.477 214.447 567.534 214.617 567.762 214.617Z" fill="black"/>
<path d="M611.175 233.123C607.872 233.123 605.31 232.724 602.862 231.642C601.951 231.244 601.78 230.959 601.78 229.706C601.78 226.575 602.008 223.158 602.065 222.247C602.121 221.393 602.292 220.767 602.748 220.767C603.26 220.767 603.317 221.279 603.317 221.735C603.317 222.475 603.545 223.671 603.83 224.639C605.082 228.852 608.442 230.39 611.972 230.39C617.096 230.39 619.602 226.916 619.602 223.899C619.602 221.109 618.748 218.489 614.022 214.788L611.403 212.739C605.139 207.842 602.976 203.856 602.976 199.244C602.976 192.981 608.214 188.482 616.128 188.482C618.292 188.482 620 188.71 621.367 188.938C622.335 189.109 623.075 189.28 623.701 189.45C624.214 189.564 624.499 189.735 624.499 190.134C624.499 190.874 624.271 192.525 624.271 196.966C624.271 198.219 624.1 198.675 623.644 198.675C623.246 198.675 623.075 198.333 623.075 197.65C623.075 197.137 622.79 195.372 621.595 193.892C620.741 192.81 619.089 191.102 615.388 191.102C611.175 191.102 608.613 193.55 608.613 196.966C608.613 199.586 609.922 201.578 614.648 205.166L616.242 206.361C623.132 211.543 625.58 215.472 625.58 220.881C625.58 224.183 624.328 228.112 620.228 230.788C617.381 232.61 614.193 233.123 611.175 233.123Z" fill="black"/>
<path d="M646.479 207.386H668.23C668.401 207.386 668.572 207.272 668.572 206.988V205.792C668.572 197.137 668.572 195.543 668.458 193.721C668.344 191.785 667.888 190.874 666.009 190.475C665.554 190.361 664.586 190.305 663.789 190.305C663.162 190.305 662.821 190.191 662.821 189.792C662.821 189.393 663.219 189.28 664.016 189.28C667.091 189.28 670.678 189.45 672.216 189.45C673.582 189.45 677.169 189.28 679.39 189.28C680.187 189.28 680.586 189.393 680.586 189.792C680.586 190.191 680.244 190.305 679.561 190.305C679.105 190.305 678.593 190.361 677.91 190.475C676.372 190.76 675.917 191.728 675.803 193.721C675.689 195.543 675.689 197.137 675.689 205.792V215.813C675.689 221.052 675.689 225.55 675.974 227.998C676.144 229.592 676.486 230.845 678.194 231.073C678.991 231.187 680.244 231.301 681.098 231.301C681.725 231.301 682.009 231.471 682.009 231.756C682.009 232.155 681.554 232.326 680.87 232.326C677.169 232.326 673.582 232.155 671.988 232.155C670.678 232.155 667.091 232.326 664.871 232.326C664.073 232.326 663.675 232.155 663.675 231.756C663.675 231.471 663.903 231.301 664.586 231.301C665.44 231.301 666.123 231.187 666.636 231.073C667.774 230.845 668.059 229.592 668.287 227.941C668.572 225.55 668.572 221.052 668.572 215.813V210.803C668.572 210.575 668.401 210.461 668.23 210.461H646.479C646.308 210.461 646.138 210.518 646.138 210.803V215.813C646.138 221.052 646.138 225.55 646.422 227.998C646.593 229.592 646.935 230.845 648.643 231.073C649.44 231.187 650.693 231.301 651.547 231.301C652.173 231.301 652.458 231.471 652.458 231.756C652.458 232.155 652.002 232.326 651.319 232.326C647.618 232.326 644.031 232.155 642.437 232.155C641.127 232.155 637.54 232.326 635.262 232.326C634.522 232.326 634.123 232.155 634.123 231.756C634.123 231.471 634.351 231.301 635.034 231.301C635.889 231.301 636.572 231.187 637.084 231.073C638.223 230.845 638.508 229.592 638.736 227.941C639.02 225.55 639.02 221.052 639.02 215.813V205.792C639.02 197.137 639.02 195.543 638.906 193.721C638.792 191.785 638.337 190.874 636.458 190.475C636.002 190.361 635.034 190.305 634.237 190.305C633.611 190.305 633.269 190.191 633.269 189.792C633.269 189.393 633.668 189.28 634.465 189.28C637.54 189.28 641.127 189.45 642.664 189.45C644.031 189.45 647.618 189.28 649.839 189.28C650.636 189.28 651.034 189.393 651.034 189.792C651.034 190.191 650.522 190.305 650.009 190.305C649.554 190.305 648.814 190.361 648.358 190.418C646.821 190.646 646.365 191.728 646.251 193.721C646.138 195.543 646.138 197.137 646.138 205.792V206.988C646.138 207.272 646.308 207.386 646.479 207.386Z" fill="black"/>
<path d="M695.43 215.813V205.792C695.43 197.137 695.43 195.543 695.316 193.721C695.202 191.785 694.747 190.874 692.868 190.475C692.412 190.361 691.444 190.305 690.647 190.305C690.021 190.305 689.679 190.191 689.679 189.792C689.679 189.393 690.078 189.28 690.932 189.28C693.551 189.28 696.17 189.45 699.131 189.45C700.953 189.45 712.284 189.45 713.366 189.393C714.448 189.28 715.359 189.166 715.814 189.052C716.099 188.995 716.44 188.824 716.725 188.824C717.01 188.824 717.067 189.052 717.067 189.337C717.067 189.735 716.782 190.418 716.611 193.038C716.554 193.607 716.44 196.112 716.327 196.796C716.27 197.08 716.156 197.422 715.757 197.422C715.359 197.422 715.245 197.08 715.245 196.397C715.245 196.169 715.188 195.258 714.903 194.575C714.504 193.55 713.935 192.867 711.088 192.525C710.12 192.411 704.142 192.297 703.003 192.297C702.718 192.297 702.604 192.468 702.604 192.867V207.272C702.604 207.671 702.661 207.899 703.003 207.899C704.255 207.899 710.803 207.899 712.113 207.785C713.48 207.671 714.334 207.5 714.846 206.931C715.245 206.475 715.472 206.191 715.757 206.191C715.985 206.191 716.156 206.304 716.156 206.646C716.156 206.988 715.928 207.899 715.7 210.803C715.643 211.941 715.472 214.219 715.472 214.617C715.472 215.073 715.472 215.699 714.96 215.699C714.561 215.699 714.448 215.073 714.448 214.788C714.391 214.219 714.391 213.877 714.22 213.137C713.935 211.998 713.138 211.144 711.031 210.916C709.949 210.803 704.312 210.746 702.946 210.746C702.661 210.746 702.604 210.973 702.604 211.315V215.813C702.604 217.749 702.547 222.988 702.604 224.639C702.718 228.568 703.629 229.422 709.437 229.422C710.917 229.422 713.309 229.422 714.789 228.738C716.27 228.055 716.953 226.859 717.351 224.525C717.465 223.899 717.579 223.671 717.978 223.671C718.433 223.671 718.433 224.126 718.433 224.696C718.433 226.005 717.978 229.877 717.693 231.016C717.295 232.496 716.782 232.496 714.618 232.496C709.551 232.496 704.54 232.155 698.846 232.155C696.569 232.155 694.234 232.326 691.672 232.326C690.932 232.326 690.533 232.155 690.533 231.756C690.533 231.471 690.761 231.301 691.444 231.301C692.298 231.301 692.982 231.187 693.494 231.073C694.633 230.845 694.917 229.592 695.145 227.941C695.43 225.55 695.43 221.052 695.43 215.813Z" fill="black"/>
<path d="M731.989 215.813V205.792C731.989 197.137 731.989 195.543 731.875 193.721C731.761 191.785 731.306 190.874 729.427 190.475C728.971 190.361 728.003 190.305 727.206 190.305C726.58 190.305 726.238 190.191 726.238 189.792C726.238 189.393 726.637 189.28 727.491 189.28C730.11 189.28 732.729 189.45 735.69 189.45C737.512 189.45 748.843 189.45 749.925 189.393C751.006 189.28 751.917 189.166 752.373 189.052C752.658 188.995 752.999 188.824 753.284 188.824C753.569 188.824 753.626 189.052 753.626 189.337C753.626 189.735 753.341 190.418 753.17 193.038C753.113 193.607 752.999 196.112 752.885 196.796C752.828 197.08 752.715 197.422 752.316 197.422C751.917 197.422 751.804 197.08 751.804 196.397C751.804 196.169 751.747 195.258 751.462 194.575C751.063 193.55 750.494 192.867 747.647 192.525C746.679 192.411 740.7 192.297 739.562 192.297C739.277 192.297 739.163 192.468 739.163 192.867V207.272C739.163 207.671 739.22 207.899 739.562 207.899C740.814 207.899 747.362 207.899 748.672 207.785C750.038 207.671 750.893 207.5 751.405 206.931C751.804 206.475 752.031 206.191 752.316 206.191C752.544 206.191 752.715 206.304 752.715 206.646C752.715 206.988 752.487 207.899 752.259 210.803C752.202 211.941 752.031 214.219 752.031 214.617C752.031 215.073 752.031 215.699 751.519 215.699C751.12 215.699 751.006 215.073 751.006 214.788C750.95 214.219 750.95 213.877 750.779 213.137C750.494 211.998 749.697 211.144 747.59 210.916C746.508 210.803 740.871 210.746 739.505 210.746C739.22 210.746 739.163 210.973 739.163 211.315V215.813C739.163 217.749 739.106 222.988 739.163 224.639C739.277 228.568 740.188 229.422 745.996 229.422C747.476 229.422 749.868 229.422 751.348 228.738C752.828 228.055 753.512 226.859 753.91 224.525C754.024 223.899 754.138 223.671 754.537 223.671C754.992 223.671 754.992 224.126 754.992 224.696C754.992 226.005 754.537 229.877 754.252 231.016C753.853 232.496 753.341 232.496 751.177 232.496C746.11 232.496 741.099 232.155 735.405 232.155C733.128 232.155 730.793 232.326 728.231 232.326C727.491 232.326 727.092 232.155 727.092 231.756C727.092 231.471 727.32 231.301 728.003 231.301C728.857 231.301 729.54 231.187 730.053 231.073C731.192 230.845 731.476 229.592 731.704 227.941C731.989 225.55 731.989 221.052 731.989 215.813Z" fill="black"/>
<path d="M768.548 215.813V205.792C768.548 197.137 768.548 195.543 768.434 193.721C768.32 191.785 767.864 190.874 765.985 190.475C765.53 190.361 764.562 190.305 763.765 190.305C763.138 190.305 762.797 190.191 762.797 189.792C762.797 189.393 763.195 189.28 764.049 189.28C767.067 189.28 770.654 189.45 772.249 189.45C774.014 189.45 777.601 189.28 781.017 189.28C788.135 189.28 797.644 189.28 803.85 195.771C806.697 198.731 809.373 203.457 809.373 210.233C809.373 217.408 806.355 222.874 803.167 226.119C800.547 228.795 794.626 232.838 784.092 232.838C782.042 232.838 779.708 232.667 777.544 232.496C775.38 232.326 773.387 232.155 771.964 232.155C771.338 232.155 770.085 232.155 768.718 232.212C767.409 232.212 765.928 232.326 764.79 232.326C764.049 232.326 763.651 232.155 763.651 231.756C763.651 231.471 763.879 231.301 764.562 231.301C765.416 231.301 766.099 231.187 766.612 231.073C767.751 230.845 768.035 229.592 768.263 227.941C768.548 225.55 768.548 221.052 768.548 215.813ZM775.665 204.881V212.055C775.665 218.091 775.722 222.475 775.779 223.557C775.836 224.98 775.95 227.258 776.405 227.884C777.145 228.966 779.366 230.162 783.864 230.162C789.672 230.162 793.544 229.023 796.96 226.062C800.604 222.931 801.743 217.749 801.743 211.884C801.743 204.653 798.725 199.984 796.277 197.65C791.039 192.639 784.548 191.956 780.106 191.956C778.968 191.956 776.861 192.127 776.405 192.354C775.893 192.582 775.722 192.867 775.722 193.493C775.665 195.429 775.665 200.383 775.665 204.881Z" fill="black"/>
<line x1="696.666" y1="258.6" x2="1018.2" y2="258.6" stroke="black" stroke-width="0.7"/>
<line x1="3.0598e-08" y1="258.6" x2="318.189" y2="258.6" stroke="black" stroke-width="0.7"/>
<line x1="4.37114e-08" y1="154.62" x2="1018.2" y2="154.62" stroke="black"/>
<line x1="4.37114e-08" y1="298.642" x2="1018.2" y2="298.642" stroke="black"/>
</svg>
