<?xml version="1.0" encoding="UTF-8" standalone="no"?>
<!-- Created with Inkscape (http://www.inkscape.org/) -->

<svg
   width="199.85519mm"
   height="108.96906mm"
   viewBox="0 0 199.85519 108.96906"
   version="1.1"
   id="svg3848"
   inkscape:export-filename="multilaw.svg"
   inkscape:export-xdpi="600"
   inkscape:export-ydpi="600"
   xmlns:inkscape="http://www.inkscape.org/namespaces/inkscape"
   xmlns:sodipodi="http://sodipodi.sourceforge.net/DTD/sodipodi-0.dtd"
   xmlns:xlink="http://www.w3.org/1999/xlink"
   xmlns="http://www.w3.org/2000/svg"
   xmlns:svg="http://www.w3.org/2000/svg">
  <sodipodi:namedview
     id="namedview3850"
     pagecolor="#ffffff"
     bordercolor="#666666"
     borderopacity="1.0"
     inkscape:showpageshadow="2"
     inkscape:pageopacity="0.0"
     inkscape:pagecheckerboard="0"
     inkscape:deskcolor="#d1d1d1"
     inkscape:document-units="mm"
     showgrid="false" />
  <defs
     id="defs3845">
    <linearGradient
       x1="331.1524"
       y1="331.1524"
       x2="0"
       y2="331.1524"
       id="linearGradient"
       gradientTransform="matrix(0.11269622,0,0,0.07718262,6.2334444,31.218996)"
       gradientUnits="userSpaceOnUse">
      <stop
         stop-color="#6AE8CE"
         offset="0%"
         id="stop3618" />
      <stop
         stop-color="#78E4EF"
         offset="99.9614155%"
         id="stop3620" />
    </linearGradient>
    <linearGradient
       inkscape:collect="always"
       xlink:href="#linearGradient"
       id="linearGradient11728"
       gradientUnits="userSpaceOnUse"
       gradientTransform="matrix(0.11269622,0,0,0.07718262,6.2334444,31.218996)"
       x1="331.1524"
       y1="331.1524"
       x2="0"
       y2="331.1524" />
  </defs>
  <g
     inkscape:label="Layer 1"
     inkscape:groupmode="layer"
     id="layer1"
     transform="translate(-6.2334444,-8.385905)">
    <g
       id="g11574"
       transform="translate(0,60.57676)"
       inkscape:export-filename="multilaw-black.svg"
       inkscape:export-xdpi="600"
       inkscape:export-ydpi="600">
      <polygon
         fill="#ffffff"
         points="1052.5457,52.284 1019.3097,52.284 1019.3097,217.377 1131.8547,217.377 1131.8547,185.974 1052.5457,185.974 "
         id="polygon3625"
         transform="matrix(0.09326408,0,0,0.09326408,6.2334444,31.218996)"
         style="fill:#000000;fill-opacity:1;fill-rule:evenodd;stroke:none;stroke-width:1" />
      <polygon
         fill="#ffffff"
         points="1226.751,217.3764 1259.987,217.3764 1259.987,83.6864 1301.016,83.6864 1301.016,52.2844 1187.325,52.2844 1187.325,83.6864 1226.751,83.6864 "
         id="polygon3627"
         transform="matrix(0.09326408,0,0,0.09326408,6.2334444,31.218996)"
         style="fill:#000000;fill-opacity:1;fill-rule:evenodd;stroke:none;stroke-width:1" />
      <polygon
         fill="#ffffff"
         points="1421.354,52.284 1388.118,52.284 1388.118,217.377 1421.354,217.377 "
         id="polygon3629"
         transform="matrix(0.09326408,0,0,0.09326408,6.2334444,31.218996)"
         style="fill:#000000;fill-opacity:1;fill-rule:evenodd;stroke:none;stroke-width:1" />
      <polygon
         fill="#ffffff"
         points="1553.1501,52.284 1519.9141,52.284 1519.9141,217.377 1632.4591,217.377 1632.4591,185.974 1553.1501,185.974 "
         id="polygon3631"
         transform="matrix(0.09326408,0,0,0.09326408,6.2334444,31.218996)"
         style="fill:#000000;fill-opacity:1;fill-rule:evenodd;stroke:none;stroke-width:1" />
      <path
         fill="#ffffff"
         d="m 172.31456,35.488607 7.09731,16.003836 h -3.5916 l -1.21299,-3.012616 h -5.22251 l -1.28182,3.012616 h -3.05683 l 7.0974,-16.003836 z m -0.24659,6.685169 -1.59724,3.754066 h 3.10896 z"
         id="path3633"
         style="fill:#000000;fill-opacity:1;fill-rule:evenodd;stroke:none;stroke-width:0.0932641" />
      <polygon
         fill="#ffffff"
         points="2051.4674,224.5531 2116.5654,53.4061 2080.8074,53.4061 2052.2624,145.0691 2011.3864,53.4061 1970.5104,145.0691 1941.9664,53.4061 1906.2084,53.4061 1971.3064,224.5531 2011.3864,126.7531 "
         id="polygon3635"
         transform="matrix(0.09326408,0,0,0.09326408,6.2334444,31.218996)"
         style="fill:#000000;fill-opacity:1;fill-rule:evenodd;stroke:none;stroke-width:1" />
      <path
         d="m 89.369689,45.801973 c 0,0.48833 -0.146238,0.955583 -0.438155,1.401666 -0.292383,0.446735 -0.687729,0.809345 -1.186412,1.087925 -0.499056,0.279419 -1.0689,0.418476 -1.71037,0.418476 -0.584393,0 -1.122247,-0.139057 -1.613935,-0.418476 -0.491595,-0.27858 -0.887035,-0.64119 -1.186506,-1.087925 -0.299284,-0.446083 -0.448973,-0.913336 -0.448973,-1.401666 v -9.706739 h -3.099725 v 9.769879 c 0,1.129521 0.284922,2.130524 0.855138,3.001797 0.569844,0.87174 1.336195,1.555272 2.298121,2.050224 0.961925,0.495233 2.027281,0.742756 3.19588,0.742756 1.182961,0 2.258763,-0.247523 3.228149,-0.742756 0.969014,-0.494952 1.738536,-1.178484 2.308659,-2.050224 0.569937,-0.871273 0.855232,-1.872276 0.855232,-3.001797 v -9.769879 h -3.057103 z"
         fill="#ffffff"
         id="path3637"
         style="fill:#000000;fill-opacity:1;fill-rule:evenodd;stroke:none;stroke-width:0.0932641" />
      <polygon
         fill="#ffffff"
         points="550.7935,143.4813 603.7405,215.1323 604.2005,215.1323 659.2125,138.5943 659.2125,217.3773 692.4485,217.3773 692.4485,45.5533 691.9885,45.5533 604.5095,164.3143 518.9315,45.5533 518.7025,45.5533 518.7025,217.3773 550.7935,217.3773 "
         id="polygon3639"
         transform="matrix(0.09326408,0,0,0.09326408,6.2334444,31.218996)"
         style="fill:#000000;fill-opacity:1;fill-rule:evenodd;stroke:none;stroke-width:1" />
      <path
         d="M 37.815367,31.218996 34.926605,41.742728 43.553066,56.778204 24.893162,41.78563 Z m -25.844223,0 L 24.893162,41.78563 6.2334444,56.778204 14.859905,41.742728 Z"
         fill="url(#linearGradient)"
         id="path3641"
         style="fill:url(#linearGradient11728);fill-rule:evenodd;stroke:none;stroke-width:0.0932641" />
    </g>
    <g
       id="g9510"
       transform="matrix(0.73677753,0,0,0.73677753,37.900965,-60.305746)">
      <path
         fill-rule="evenodd"
         clip-rule="evenodd"
         d="m 38.403366,172.12151 c 7.271279,18.43194 24.291925,34.35826 53.979762,34.35826 26.798322,0 46.352882,-13.94803 54.948662,-34.35826 H 129.8087 c -6.01768,23.86754 -23.11029,27.13593 -31.358676,27.13593 -18.712127,0 -32.360923,-10.8495 -39.260727,-27.13593 z m -2.061898,-38.10582 c 5.69939,-20.65663 23.077752,-40.783136 57.48602,-40.783136 30.897512,0 51.775252,15.456266 57.047072,40.783136 H 129.64995 C 123.963,112.7374 108.38354,100.16607 89.638605,100.16607 c -14.703425,0 -31.217658,7.24291 -34.817579,33.84962 z"
         fill="#000000"
         id="path8895"
         style="stroke-width:0.264583" />
      <path
         d="m 50.74512,161.94643 v 2.20821 c 0,1.82378 0.04974,2.61779 0.27305,2.8411 0.198438,0.1987 0.520965,0.28549 1.48881,0.28549 0.65749,0 1.203325,-0.0124 1.501246,-0.37227 0.161131,-0.19844 0.285221,-0.50853 0.322527,-0.74428 0.01244,-0.0992 0.03731,-0.16139 0.111654,-0.16139 0.06191,0 0.07435,0.0497 0.07435,0.18626 0,0.13626 -0.08678,0.8808 -0.186002,1.24064 -0.08678,0.28522 -0.124089,0.33496 -0.781579,0.33496 -1.067064,0 -2.121694,-0.0746 -3.325019,-0.0746 -0.384704,0 -0.756708,0.0373 -1.21576,0.0373 -0.136525,0 -0.198702,-0.0249 -0.198702,-0.0992 0,-0.0373 0.02487,-0.0743 0.09948,-0.0743 0.111654,0 0.26035,-0.0249 0.372004,-0.0498 0.24818,-0.0497 0.310357,-0.32252 0.359834,-0.68236 0.06218,-0.52096 0.06218,-1.50124 0.06218,-2.69213 v -2.18361 c 0,-1.93543 0,-2.28282 -0.02487,-2.67996 -0.02487,-0.42175 -0.12409,-0.62019 -0.5334,-0.70697 -0.09948,-0.0249 -0.310356,-0.0373 -0.42201,-0.0373 -0.04948,0 -0.09922,-0.0249 -0.09922,-0.0743 0,-0.0746 0.06218,-0.0995 0.198437,-0.0995 0.558271,0 1.340115,0.0373 1.402027,0.0373 0.06191,0 0.967846,-0.0373 1.33985,-0.0373 0.136525,0 0.198702,0.0249 0.198702,0.0995 0,0.0495 -0.04974,0.0743 -0.09948,0.0743 -0.08678,0 -0.26035,0.0124 -0.40931,0.0373 -0.359834,0.0619 -0.459052,0.27279 -0.483923,0.70697 -0.02487,0.39714 -0.02487,0.74453 -0.02487,2.67996 z"
         fill="#000000"
         id="path8897"
         style="stroke-width:0.264583" />
      <path
         d="m 64.21982,164.58539 h -2.286265 c -0.05318,0 -0.0852,0.032 -0.106362,0.0852 l -0.638175,1.88225 c -0.09578,0.2659 -0.148961,0.52096 -0.148961,0.71252 0,0.21246 0.202142,0.30824 0.382852,0.30824 0.03202,0 0.06403,0 0.09578,0 0.106362,0 0.138377,0.0214 0.138377,0.0638 0,0.064 -0.09578,0.0852 -0.191559,0.0852 -0.255058,0 -0.680508,-0.032 -0.797454,-0.032 -0.116946,0 -0.701939,0.032 -1.201737,0.032 -0.138113,0 -0.202142,-0.0212 -0.202142,-0.0852 0,-0.0423 0.05318,-0.0638 0.14896,-0.0638 0.07435,0 0.170128,-0.0106 0.255323,-0.0212 0.48895,-0.0638 0.701675,-0.46804 0.893234,-0.99959 l 2.413793,-6.604 c 0.127794,-0.35084 0.170392,-0.4146 0.234157,-0.4146 0.06376,0 0.106362,0.0532 0.233891,0.38285 0.159544,0.40402 1.829065,4.7961 2.477823,6.41244 0.382852,0.94641 0.691092,1.11654 0.9144,1.18031 0.159544,0.0532 0.329671,0.0638 0.414867,0.0638 0.06376,0 0.116946,0.0106 0.116946,0.0638 0,0.064 -0.09578,0.0852 -0.212725,0.0852 -0.159544,0 -0.935832,0 -1.669521,-0.0212 -0.202142,-0.0108 -0.319088,-0.0108 -0.319088,-0.0746 0,-0.0426 0.03202,-0.0638 0.07435,-0.0743 0.06403,-0.0214 0.127794,-0.11694 0.06403,-0.28707 l -0.989012,-2.6162 c -0.02143,-0.0423 -0.0426,-0.0638 -0.09578,-0.0638 z m -2.169319,-0.38286 h 2.030942 c 0.05318,0 0.05318,-0.0317 0.0426,-0.0743 l -1.010179,-2.87126 c -0.05318,-0.15955 -0.106363,-0.15955 -0.159544,0 l -0.935831,2.87126 c -0.02117,0.0532 0,0.0743 0.03201,0.0743 z"
         fill="#000000"
         id="path8899"
         style="stroke-width:0.264583" />
      <path
         d="m 73.495847,167.03119 -1.893094,-6.30608 c -0.170127,-0.56356 -0.308239,-0.7231 -0.584729,-0.82946 -0.138377,-0.0532 -0.404283,-0.0638 -0.478631,-0.0638 -0.05318,0 -0.09578,-0.0106 -0.09578,-0.0744 0,-0.0532 0.06403,-0.0743 0.170127,-0.0743 0.552979,0 1.137972,0.0318 1.254918,0.0318 0.09578,0 0.563563,-0.0318 1.095375,-0.0318 0.148961,0 0.191294,0.0318 0.191294,0.0743 0,0.0638 -0.05318,0.0744 -0.106098,0.0744 -0.0852,0 -0.287337,0 -0.414867,0.0638 -0.06376,0.032 -0.138112,0.11721 -0.138112,0.25532 0,0.13838 0.09552,0.51038 0.201877,0.97843 0.159544,0.68051 1.265502,4.58338 1.435629,5.17869 l 2.265098,-6.09336 c 0.159544,-0.43603 0.202142,-0.48921 0.265906,-0.48921 0.07435,0 0.138113,0.13838 0.265907,0.4998 l 2.137304,6.09362 c 0.308504,-1.0422 1.286933,-4.12618 1.658937,-5.48746 0.106363,-0.39344 0.116946,-0.54213 0.116946,-0.68051 0,-0.19129 -0.116946,-0.31909 -0.605896,-0.31909 -0.05318,0 -0.09578,-0.0318 -0.09578,-0.0744 0,-0.0532 0.05318,-0.0743 0.18071,-0.0743 0.542396,0 0.989013,0.0318 1.084792,0.0318 0.07435,0 0.531548,-0.0318 0.861219,-0.0318 0.09578,0 0.14896,0.0212 0.14896,0.0638 0,0.0532 -0.03201,0.0849 -0.09578,0.0849 -0.0426,0 -0.244475,0.0106 -0.361421,0.0532 -0.319087,0.11695 -0.489214,0.56357 -0.691356,1.14856 -0.467783,1.35043 -1.541992,4.73234 -1.956594,5.92323 -0.276489,0.78687 -0.329671,0.91466 -0.446616,0.91466 -0.106363,0 -0.170127,-0.13838 -0.319088,-0.55298 l -2.094971,-5.94466 c -0.393435,1.05278 -1.850231,4.94507 -2.233083,5.93381 -0.170127,0.44662 -0.24474,0.56383 -0.351102,0.56383 -0.106363,0 -0.159544,-0.11721 -0.372004,-0.84032 z"
         fill="#000000"
         id="path8901"
         style="stroke-width:0.264583" />
      <path
         d="m 95.784876,164.12977 v -2.1836 c 0,-1.93543 0,-2.28256 -0.02487,-2.6797 -0.02487,-0.42175 -0.12409,-0.62045 -0.5334,-0.70723 -0.07461,-0.0124 -0.198702,-0.0124 -0.310356,-0.0249 -0.111655,-0.0122 -0.210873,-0.0246 -0.210873,-0.0868 0,-0.0743 0.06218,-0.0992 0.198437,-0.0992 0.483923,0 0.955411,0.0373 1.402027,0.0373 0.248179,0 2.766748,0 3.051969,-0.0124 0.285485,-0.0124 0.508794,-0.0124 0.608012,-0.0743 0.03731,-0.0249 0.08678,-0.0497 0.111658,-0.0497 0.0495,0 0.0743,0.0497 0.0743,0.11166 0,0.0619 -0.0495,0.23574 -0.0743,0.3847 -0.0497,0.35957 -0.0497,0.55827 -0.0743,0.90567 0,0.1487 -0.06218,0.24792 -0.111655,0.24792 -0.06218,0 -0.07461,-0.0495 -0.08705,-0.16114 -0.01244,-0.17383 -0.06191,-0.47148 -0.235744,-0.62044 -0.148696,-0.12409 -0.372004,-0.22331 -0.731838,-0.23575 -0.632883,-0.0124 -1.265502,-0.0246 -1.898385,-0.037 -0.07435,0 -0.111654,0.037 -0.111654,0.13653 v 3.42397 c 0,0.0746 0.01244,0.11165 0.08705,0.11165 0.508529,0 1.21576,0 1.724554,-0.0122 0.657489,-0.0124 0.818621,-0.0249 0.992452,-0.23574 0.06191,-0.0746 0.08678,-0.12409 0.136525,-0.12409 0.04948,0 0.06191,0.037 0.06191,0.0992 0,0.0744 -0.06191,0.28522 -0.09922,0.69479 -0.03731,0.37201 -0.03731,0.66993 -0.04974,0.85593 -0.01243,0.13653 -0.02461,0.21087 -0.08678,0.21087 -0.07435,0 -0.08678,-0.0868 -0.09922,-0.21087 -0.02487,-0.27278 -0.06191,-0.70723 -0.707231,-0.79401 -0.310092,-0.037 -1.662377,-0.037 -1.87325,-0.037 -0.06218,0 -0.08705,0.0246 -0.08705,0.11166 v 1.05436 c 0,1.05463 0,1.93543 0.03731,2.50614 0.03731,0.55827 0.173831,0.83132 0.508794,0.86862 0.161131,0.0246 0.372004,0.0371 0.508529,0.0495 0.111654,0.0124 0.14896,0.0373 0.14896,0.0868 0,0.0622 -0.06218,0.087 -0.198437,0.087 -0.694796,0 -1.464204,-0.0373 -1.526117,-0.0373 h -0.111654 c -0.248179,0.0124 -0.80645,0.0373 -1.104106,0.0373 -0.136525,0 -0.198702,-0.0249 -0.198702,-0.0992 0,-0.0373 0.02487,-0.0622 0.136525,-0.0746 0.124089,-0.0124 0.235744,-0.0249 0.322527,-0.0495 0.260614,-0.0746 0.347398,-0.26061 0.384704,-0.80645 0.03731,-0.53366 0.04974,-1.40202 0.04974,-2.56831 z"
         fill="#000000"
         id="path8903"
         style="stroke-width:0.264583" />
      <path
         d="m 107.52603,164.63857 v -1.87167 c 0,-1.65893 0,-1.95659 -0.0214,-2.29711 -0.0212,-0.36142 -0.12752,-0.54213 -0.36142,-0.59531 -0.11694,-0.032 -0.25532,-0.0426 -0.32967,-0.0426 -0.0426,0 -0.0852,-0.0212 -0.0852,-0.0638 0,-0.0638 0.0532,-0.0852 0.17012,-0.0852 0.35111,0 1.02103,0.032 1.07421,0.032 0.0532,0 0.72311,-0.032 1.0422,-0.032 0.11694,0 0.17012,0.0214 0.17012,0.0852 0,0.0426 -0.0426,0.0638 -0.0852,0.0638 -0.0744,0 -0.13812,0.0106 -0.26591,0.0317 -0.28707,0.0532 -0.372,0.23416 -0.39343,0.60616 -0.0212,0.34052 -0.0212,0.63818 -0.0212,2.29711 v 1.87167 c 0,1.02076 0,1.86081 0.0532,2.30769 0.0317,0.30824 0.0958,0.54213 0.4146,0.58473 0.14896,0.0212 0.37227,0.0426 0.43604,0.0426 0.0958,0 0.12779,0.0318 0.12779,0.0638 0,0.0532 -0.0426,0.0852 -0.15954,0.0852 -0.585,0 -1.26551,-0.032 -1.31869,-0.032 -0.0532,0 -0.7231,0.032 -1.04219,0.032 -0.11695,0 -0.17013,-0.0214 -0.17013,-0.0852 0,-0.032 0.0212,-0.0638 0.11695,-0.0638 0.0638,0 0.18071,-0.0106 0.27649,-0.032 0.21272,-0.0423 0.27649,-0.28708 0.31908,-0.59532 0.0532,-0.44688 0.0532,-1.28693 0.0532,-2.30769 z"
         fill="#000000"
         id="path8905"
         style="stroke-width:0.264583" />
      <path
         d="m 116.25066,164.63857 v -1.87167 c 0,-1.65893 0,-1.95659 -0.0214,-2.29711 -0.0212,-0.36142 -0.10636,-0.53155 -0.4572,-0.60616 -0.0849,-0.0212 -0.26591,-0.0317 -0.36142,-0.0317 -0.0426,0 -0.0852,-0.0212 -0.0852,-0.0638 0,-0.0638 0.0532,-0.0852 0.17013,-0.0852 0.47863,0 1.14856,0.032 1.20174,0.032 0.11694,0 0.92525,-0.032 1.25465,-0.032 0.67019,0 1.38245,0.0638 1.94628,0.46805 0.26564,0.19129 0.73369,0.71252 0.73369,1.44621 0,0.78687 -0.32967,1.57374 -1.28667,2.45639 0.8718,1.11654 1.59491,2.06322 2.21191,2.7223 0.57415,0.60616 1.03135,0.72337 1.29726,0.76571 0.20214,0.032 0.35083,0.032 0.41486,0.032 0.0532,0 0.0955,0.0318 0.0955,0.0638 0,0.0638 -0.0638,0.0852 -0.25506,0.0852 h -0.75512 c -0.59558,0 -0.86149,-0.0532 -1.13797,-0.20214 -0.4572,-0.24474 -0.82921,-0.76571 -1.43537,-1.56316 -0.44688,-0.58499 -0.94668,-1.29752 -1.15914,-1.57401 -0.0426,-0.0426 -0.0746,-0.0638 -0.13838,-0.0638 l -1.3081,-0.0212 c -0.0532,0 -0.0743,0.0318 -0.0743,0.0849 v 0.25533 c 0,1.02076 0,1.86081 0.0532,2.30769 0.032,0.30824 0.0958,0.54213 0.41486,0.58473 0.1487,0.0212 0.38259,0.0426 0.47837,0.0426 0.0638,0 0.0852,0.0318 0.0852,0.0638 0,0.0532 -0.0532,0.0852 -0.17013,0.0852 -0.58499,0 -1.25492,-0.032 -1.3081,-0.032 -0.0106,0 -0.68051,0.032 -0.9996,0.032 -0.11694,0 -0.17012,-0.0214 -0.17012,-0.0852 0,-0.032 0.0212,-0.0638 0.0849,-0.0638 0.0958,0 0.22331,-0.0214 0.31909,-0.0426 0.21272,-0.0426 0.2659,-0.27649 0.3085,-0.58473 0.0532,-0.44688 0.0532,-1.28693 0.0532,-2.30769 z m 0.85064,-4.42384 v 3.47742 c 0,0.0532 0.0212,0.0955 0.0743,0.12753 0.15955,0.0958 0.64876,0.17013 1.11681,0.17013 0.25506,0 0.55298,-0.032 0.79745,-0.20214 0.37227,-0.25506 0.64876,-0.82947 0.64876,-1.63751 0,-1.32927 -0.70194,-2.12698 -1.83965,-2.12698 -0.31908,0 -0.60616,0.032 -0.71252,0.064 -0.0532,0.0212 -0.0852,0.0638 -0.0852,0.12753 z"
         fill="#000000"
         id="path8907"
         style="stroke-width:0.264583" />
      <path
         d="m 135.50809,159.8213 0.71253,6.52939 c 0.0426,0.38285 0.11694,0.97816 0.57414,1.12712 0.30851,0.0958 0.55298,0.0958 0.65934,0.0958 0.0532,0 0.11695,0.0106 0.11695,0.0638 0,0.0638 -0.0318,0.0852 -0.15928,0.0852 -0.23416,0 -1.44648,-0.032 -1.83991,-0.064 -0.24448,-0.0212 -0.29766,-0.0532 -0.29766,-0.10636 0,-0.0423 0.0212,-0.0529 0.0743,-0.0743 0.0746,-0.0318 0.0638,-0.19129 0.0426,-0.38285 l -0.51038,-5.55096 -2.63737,5.59356 c -0.22331,0.46778 -0.25506,0.56356 -0.35084,0.56356 -0.0746,0 -0.12779,-0.10636 -0.32967,-0.48922 -0.27649,-0.52096 -1.19115,-2.36061 -1.24433,-2.46697 -0.0955,-0.19156 -1.31869,-2.81808 -1.43563,-3.10515 l -0.43604,5.00856 c -0.0106,0.17013 -0.0212,0.31909 -0.0212,0.4998 0,0.26591 0.12753,0.3511 0.28707,0.38285 0.18098,0.0426 0.31909,0.0426 0.38285,0.0426 0.0638,0 0.10636,0.0212 0.10636,0.0532 0,0.0744 -0.0532,0.0958 -0.15954,0.0958 -0.39343,0 -0.93583,-0.032 -1.02076,-0.032 -0.0958,0 -0.60616,0.032 -0.89323,0.032 -0.10637,0 -0.18098,-0.0109 -0.18098,-0.0852 0,-0.0426 0.0532,-0.0638 0.10636,-0.0638 0.0852,0 0.15955,0 0.31909,-0.032 0.35084,-0.0638 0.37227,-0.44662 0.42545,-0.88265 l 0.7657,-6.91224 c 0.0106,-0.11695 0.0532,-0.21246 0.11695,-0.21246 0.0638,0 0.10636,0.0423 0.15954,0.15927 l 3.25385,6.68894 3.12658,-6.67809 c 0.0426,-0.0958 0.0852,-0.17012 0.15954,-0.17012 0.0744,0 0.10637,0.0849 0.12753,0.28707 z"
         fill="#000000"
         id="path8909"
         style="stroke-width:0.264583" />
      <path
         d="m 20.644797,154.68415 c -4.832349,0 -6.785504,-3.62003 -6.785504,-6.6003 0,-2.87919 1.902619,-6.60029 6.953779,-6.60029 4.192588,0 6.802438,2.44131 6.802438,6.29708 0,3.85577 -2.693988,6.90351 -6.970713,6.90351 z m 0.706967,-0.84191 c 1.178719,0 3.906308,-0.57255 3.906308,-5.43851 0,-3.77163 -2.171964,-6.11214 -4.93342,-6.11214 -1.936221,0 -4.141788,1.07765 -4.141788,5.27024 0,3.50229 1.936221,6.28041 5.1689,6.28041 z"
         fill="#000000"
         id="path8911"
         style="stroke-width:0.264583" />
      <path
         d="m 41.378076,143.18933 1.371071,9.31042 c 0.135467,0.94906 0.286279,1.38589 0.738188,1.52135 0.436827,0.13573 0.738187,0.15081 0.933979,0.15081 0.135731,0 0.241035,0.0151 0.241035,0.10531 0,0.12065 -0.18071,0.16589 -0.391583,0.16589 -0.376767,0 -2.455598,-0.0452 -3.058319,-0.0905 -0.346339,-0.0302 -0.436827,-0.0754 -0.436827,-0.16563 0,-0.0754 0.06032,-0.12065 0.165629,-0.1659 0.09049,-0.0299 0.135732,-0.22595 0.07541,-0.6477 l -0.918898,-6.71909 -3.329517,6.92997 c -0.34634,0.70802 -0.421746,0.84375 -0.557477,0.84375 -0.135467,0 -0.286015,-0.30136 -0.527315,-0.75327 -0.36142,-0.69294 -1.551516,-2.99799 -1.732491,-3.41974 -0.135467,-0.31644 -1.084527,-2.32013 -1.611842,-3.4499 l -0.798512,6.10129 c -0.03016,0.2712 -0.04524,0.46699 -0.04524,0.70803 0,0.28628 0.196056,0.42174 0.452173,0.48207 0.271198,0.0603 0.482071,0.0754 0.632618,0.0754 0.12065,0 0.225955,0.0302 0.225955,0.10531 0,0.13573 -0.135467,0.16589 -0.361421,0.16589 -0.632884,0 -1.310746,-0.0452 -1.581944,-0.0452 -0.286279,0 -1.009385,0.0452 -1.491456,0.0452 -0.150548,0 -0.271198,-0.0302 -0.271198,-0.16589 0,-0.0751 0.09049,-0.10531 0.241035,-0.10531 0.12065,0 0.225955,0 0.451909,-0.0452 0.42201,-0.0905 0.542396,-0.67786 0.617802,-1.19009 l 1.491456,-9.8224 c 0.04524,-0.25611 0.135467,-0.39184 0.256117,-0.39184 0.120385,0 0.210873,0.0754 0.406664,0.46699 l 4.112684,8.49682 4.097866,-8.60213 c 0.120386,-0.24103 0.195792,-0.36168 0.331523,-0.36168 0.135467,0 0.225954,0.15081 0.270933,0.46699 z"
         fill="#000000"
         id="path8913"
         style="stroke-width:0.264583" />
      <path
         d="m 51.467697,150.51114 h -3.359414 c -0.07541,0 -0.105305,0.0299 -0.135467,0.12039 l -0.813594,2.15423 c -0.150548,0.37677 -0.225954,0.73819 -0.225954,0.91917 0,0.27119 0.135467,0.46698 0.602456,0.46698 0.07541,0 0.165894,0 0.225954,0 0.180975,0 0.226219,0.0302 0.226219,0.12039 0,0.12065 -0.09049,0.15081 -0.256117,0.15081 -0.48207,0 -1.130035,-0.0452 -1.597025,-0.0452 -0.165629,0 -0.994304,0.0452 -1.777735,0.0452 -0.195792,0 -0.286279,-0.0302 -0.286279,-0.15081 0,-0.0902 0.09049,-0.12039 0.211137,-0.12039 0.135467,0 0.316178,-0.0151 0.436828,-0.0302 0.692943,-0.0905 0.979222,-0.60272 1.280583,-1.35599 l 3.78116,-9.4607 c 0.180975,-0.4371 0.286279,-0.60272 0.422011,-0.60272 0.120385,0 0.225954,0.13573 0.376502,0.48207 0.361685,0.82867 2.772039,6.97521 3.736181,9.26518 0.572558,1.35572 1.009385,1.56659 1.325827,1.642 0.225954,0.0452 0.451908,0.0603 0.632619,0.0603 0.12065,0 0.195791,0.0302 0.195791,0.12039 0,0.12065 -0.135466,0.15081 -0.692943,0.15081 -0.542396,0 -1.747573,0 -2.95275,-0.0302 -0.271198,-0.0151 -0.346605,-0.0302 -0.346605,-0.12065 0,-0.0751 0.06032,-0.12039 0.211138,-0.13547 0.105304,-0.0302 0.210873,-0.16563 0.135467,-0.3466 l -1.205177,-3.19379 c -0.03016,-0.0754 -0.07541,-0.1053 -0.150813,-0.1053 z m -3.058054,-0.75327 h 2.77204 c 0.07514,0 0.09022,-0.0452 0.07514,-0.0905 l -1.355725,-3.7211 c -0.04524,-0.13546 -0.105569,-0.18071 -0.165629,0 l -1.386152,3.70602 c -0.01508,0.0603 0,0.10557 0.06033,0.10557 z"
         fill="#000000"
         id="path8915"
         style="stroke-width:0.264583" />
      <path
         d="m 58.355595,150.07405 v -2.65139 c 0,-2.28997 0,-2.71172 -0.03016,-3.19379 -0.03016,-0.51223 -0.150548,-0.75327 -0.6477,-0.85857 -0.12065,-0.0302 -0.376766,-0.0452 -0.587639,-0.0452 -0.165629,0 -0.256117,-0.0302 -0.256117,-0.13573 0,-0.10531 0.105304,-0.13547 0.331523,-0.13547 0.798248,0 1.747573,0.0452 2.06375,0.0452 0.512233,0 1.65735,-0.0452 2.12434,-0.0452 0.94906,0 1.958445,0.0902 2.771775,0.6477 0.42201,0.28628 1.024466,1.05463 1.024466,2.06401 0,1.11469 -0.451908,2.12408 -1.973527,3.35942 1.340909,1.68725 2.380456,3.04324 3.269192,3.97721 0.843756,0.87392 1.446212,0.97923 1.672166,1.02447 0.165894,0.0302 0.301361,0.0452 0.422011,0.0452 0.120385,0 0.18071,0.0453 0.18071,0.12039 0,0.12065 -0.105568,0.15081 -0.286279,0.15081 h -1.476375 c -0.843756,0 -1.220258,-0.0754 -1.611842,-0.28628 -0.647964,-0.3466 -1.220522,-1.05463 -2.064014,-2.21456 -0.602721,-0.82867 -1.295665,-1.85314 -1.491456,-2.07909 -0.07541,-0.0902 -0.165629,-0.10531 -0.271198,-0.10531 l -1.265502,-0.0302 c -0.07541,0 -0.120386,0.0302 -0.120386,0.12038 v 0.21088 c 0,1.40123 0,2.59133 0.07514,3.22394 0.04524,0.4371 0.135731,0.76835 0.58764,0.82868 0.225954,0.0302 0.557477,0.0603 0.738187,0.0603 0.120385,0 0.18071,0.0453 0.18071,0.12039 0,0.10557 -0.105304,0.15081 -0.30136,0.15081 -0.873654,0 -1.988608,-0.0452 -2.214562,-0.0452 -0.286015,0 -1.23534,0.0452 -1.837796,0.0452 -0.195792,0 -0.301361,-0.0452 -0.301361,-0.15081 0,-0.0751 0.06032,-0.12039 0.241036,-0.12039 0.225954,0 0.406664,-0.0302 0.542396,-0.0603 0.30136,-0.0603 0.376502,-0.39158 0.436827,-0.82868 0.07541,-0.63261 0.07541,-1.82271 0.07541,-3.20886 z m 1.777735,-6.04097 v 4.57967 c 0,0.1659 0.0299,0.22596 0.135467,0.2712 0.316442,0.10557 0.76835,0.15081 1.144852,0.15081 0.602721,0 0.798513,-0.0603 1.06971,-0.25611 0.451909,-0.33152 0.888736,-1.02447 0.888736,-2.25981 0,-2.13942 -1.41605,-2.75696 -2.304786,-2.75696 -0.376766,0 -0.647964,0.0151 -0.798512,0.0603 -0.105569,0.0302 -0.135467,0.0902 -0.135467,0.21087 z"
         fill="#000000"
         id="path8917"
         style="stroke-width:0.264583" />
      <path
         d="m 79.49739,150.05368 h -3.754966 c -0.08414,0 -0.11774,0.0336 -0.151342,0.13467 l -0.909373,2.40771 c -0.168275,0.42095 -0.252412,0.82523 -0.252412,1.02711 0,0.30321 0.151341,0.52202 0.673364,0.52202 0.08414,0 0.185209,0 0.252677,0 0.201878,0 0.252413,0.0336 0.252413,0.13467 0,0.13468 -0.100806,0.16854 -0.286279,0.16854 -0.538692,0 -1.262592,-0.0505 -1.784615,-0.0505 -0.185208,0 -1.11125,0.0505 -1.986756,0.0505 -0.219075,0 -0.319881,-0.0339 -0.319881,-0.16854 0,-0.10107 0.100806,-0.13467 0.235479,-0.13467 0.151606,0 0.353748,-0.0167 0.488421,-0.0336 0.774435,-0.10107 1.094316,-0.67363 1.431131,-1.51553 l 4.22619,-10.57381 c 0.202141,-0.48842 0.319881,-0.67363 0.471487,-0.67363 0.134673,0 0.252677,0.15161 0.420952,0.53896 0.404019,0.92604 3.098006,7.79568 4.175654,10.35499 0.639763,1.51527 1.128184,1.75102 1.481667,1.83542 0.252677,0.0505 0.505089,0.0672 0.707231,0.0672 0.134673,0 0.21881,0.0336 0.21881,0.13467 0,0.13468 -0.151341,0.16854 -0.774435,0.16854 -0.60616,0 -1.953154,0 -3.300148,-0.0339 -0.302948,-0.0167 -0.38735,-0.0336 -0.38735,-0.13468 0,-0.0841 0.06747,-0.13467 0.235744,-0.15134 0.118004,-0.0339 0.235744,-0.18521 0.151606,-0.38735 l -1.346994,-3.56949 c -0.0336,-0.0844 -0.08414,-0.118 -0.168275,-0.118 z m -3.418152,-0.84191 h 3.098271 c 0.08414,0 0.100806,-0.0505 0.08414,-0.10107 l -1.515534,-4.15872 c -0.05053,-0.15161 -0.117739,-0.20214 -0.185208,0 l -1.548871,4.14205 c -0.01693,0.0672 0,0.11774 0.0672,0.11774 z"
         fill="#000000"
         id="path8919"
         style="stroke-width:0.264583" />
      <path
         d="m 88.787705,147.42266 v 2.65139 c 0,1.92828 0,2.96783 0.316442,3.23903 0.256116,0.22595 0.6477,0.33152 1.822979,0.33152 0.798248,0 1.385887,-0.0151 1.762654,-0.42201 0.18071,-0.19579 0.361421,-0.61754 0.391583,-0.90382 0.01508,-0.13546 0.04524,-0.22595 0.165629,-0.22595 0.105569,0 0.12065,0.0754 0.12065,0.25612 0,0.16562 -0.105568,1.29566 -0.225954,1.73249 -0.09049,0.33152 -0.165894,0.40666 -0.94906,0.40666 -1.386152,0 -2.77204,-0.0902 -4.384146,-0.0902 -0.602456,0 -1.220258,0.0452 -1.898121,0.0452 -0.195791,0 -0.30136,-0.0452 -0.30136,-0.15081 0,-0.0754 0.06032,-0.12039 0.241035,-0.12039 0.225954,0 0.406929,-0.0302 0.542396,-0.0603 0.30136,-0.0603 0.376767,-0.39185 0.436827,-0.82868 0.07541,-0.63261 0.07541,-1.82271 0.07541,-3.20886 v -2.65139 c 0,-2.28997 0,-2.71172 -0.03016,-3.19379 -0.03016,-0.51223 -0.150548,-0.75327 -0.6477,-0.85883 -0.12065,-0.0302 -0.301361,-0.045 -0.497152,-0.045 -0.165894,0 -0.256117,-0.0302 -0.256117,-0.13573 0,-0.10557 0.105304,-0.13547 0.331258,-0.13547 0.70829,0 1.65735,0.045 2.064015,0.045 0.361685,0 1.461294,-0.045 2.048933,-0.045 0.210873,0 0.316177,0.0299 0.316177,0.13547 0,0.10556 -0.09022,0.13573 -0.270933,0.13573 -0.165894,0 -0.406929,0.0148 -0.587639,0.045 -0.406665,0.0754 -0.527315,0.33152 -0.557478,0.85883 -0.03016,0.48207 -0.03016,0.90382 -0.03016,3.19379 z"
         fill="#000000"
         id="path8921"
         style="stroke-width:0.264583" />
      <path
         d="m 96.003686,150.07405 v -2.65139 c 0,-2.28997 0,-2.71172 -0.03016,-3.19379 -0.03016,-0.51223 -0.150548,-0.75327 -0.6477,-0.85883 -0.12065,-0.0302 -0.376502,-0.045 -0.58764,-0.045 -0.165629,0 -0.256117,-0.0302 -0.256117,-0.13573 0,-0.10557 0.105569,-0.13547 0.331523,-0.13547 0.798513,0 1.747573,0.045 2.064015,0.045 0.512233,0 1.657085,-0.045 2.124075,-0.045 0.94906,0 1.958448,0.0902 2.772038,0.6477 0.42175,0.28628 1.02447,1.05463 1.02447,2.06401 0,1.11469 -0.45191,2.12408 -1.97353,3.35942 1.34064,1.68725 2.38019,3.04324 3.26919,3.97721 0.84349,0.87366 1.44621,0.97923 1.67217,1.02447 0.16563,0.0302 0.30136,0.0452 0.42174,0.0452 0.12065,0 0.18071,0.045 0.18071,0.12039 0,0.12065 -0.1053,0.15081 -0.28628,0.15081 h -1.47637 c -0.84349,0 -1.22026,-0.0754 -1.61184,-0.28628 -0.6477,-0.3466 -1.22026,-1.05463 -2.06402,-2.21456 -0.60245,-0.82867 -1.295395,-1.85314 -1.491451,-2.07909 -0.07514,-0.0905 -0.165629,-0.10557 -0.271198,-0.10557 l -1.265238,-0.0299 c -0.07541,0 -0.120649,0.0299 -0.120649,0.12038 v 0.21088 c 0,1.40123 0,2.59133 0.07541,3.22394 0.04524,0.43683 0.135466,0.76835 0.587375,0.82868 0.225954,0.0302 0.557477,0.0603 0.738187,0.0603 0.12065,0 0.180975,0.045 0.180975,0.12039 0,0.10557 -0.105569,0.15081 -0.30136,0.15081 -0.873919,0 -1.988608,-0.0452 -2.214563,-0.0452 -0.286279,0 -1.235339,0.0452 -1.83806,0.0452 -0.195792,0 -0.30136,-0.0452 -0.30136,-0.15081 0,-0.0754 0.06033,-0.12039 0.2413,-0.12039 0.225954,0 0.406664,-0.0302 0.542131,-0.0603 0.30136,-0.0603 0.376766,-0.39185 0.437091,-0.82868 0.07514,-0.63261 0.07514,-1.82271 0.07514,-3.20886 z m 1.777736,-6.04097 v 4.57967 c 0,0.16563 0.03016,0.22596 0.135731,0.2712 0.316177,0.10557 0.768085,0.15055 1.144852,0.15055 0.602456,0 0.798512,-0.0601 1.069715,-0.25612 0.4519,-0.33125 0.88873,-1.0242 0.88873,-2.25954 0,-2.13942 -1.416049,-2.75696 -2.305049,-2.75696 -0.376502,0 -0.6477,0.0151 -0.798248,0.0603 -0.105569,0.0299 -0.135731,0.0902 -0.135731,0.21087 z"
         fill="#000000"
         id="path8923"
         style="stroke-width:0.264583" />
      <path
         d="m 112.15438,150.51088 h -3.35941 c -0.0754,0 -0.10531,0.0302 -0.13547,0.12065 l -0.81359,2.15423 c -0.15055,0.37677 -0.22596,0.73819 -0.22596,0.91917 0,0.27093 0.13547,0.46698 0.60246,0.46698 0.0754,0 0.16589,0 0.22595,0 0.18098,0 0.22622,0.0302 0.22622,0.12039 0,0.12065 -0.0905,0.15081 -0.25611,0.15081 -0.48208,0 -1.13004,-0.0452 -1.59703,-0.0452 -0.16563,0 -0.9943,0.0452 -1.77774,0.0452 -0.19579,0 -0.28627,-0.0302 -0.28627,-0.15081 0,-0.0902 0.0905,-0.12039 0.21113,-0.12039 0.13547,0 0.31618,-0.0151 0.43683,-0.0302 0.69294,-0.0905 0.97922,-0.60272 1.28058,-1.35599 l 3.78116,-9.4607 c 0.18098,-0.4371 0.28628,-0.60272 0.42201,-0.60272 0.12039,0 0.22596,0.13546 0.37651,0.48207 0.36168,0.82867 2.77204,6.97521 3.73618,9.26518 0.57256,1.35572 1.00938,1.56659 1.32582,1.642 0.22596,0.0452 0.45191,0.0603 0.63262,0.0603 0.12065,0 0.1958,0.0302 0.1958,0.12039 0,0.12065 -0.13547,0.15081 -0.69295,0.15081 -0.54239,0 -1.74757,0 -2.95275,-0.0302 -0.2712,-0.0151 -0.3466,-0.0302 -0.3466,-0.12065 0,-0.0754 0.0603,-0.12039 0.21113,-0.13547 0.10531,-0.0302 0.21088,-0.16589 0.13547,-0.3466 l -1.20518,-3.19379 c -0.0302,-0.0754 -0.0754,-0.10556 -0.15081,-0.10556 z m -3.05805,-0.75327 h 2.77204 c 0.0751,0 0.0902,-0.045 0.0751,-0.0902 l -1.35573,-3.7211 c -0.0452,-0.13573 -0.10556,-0.18071 -0.16563,0 l -1.38615,3.70602 c -0.0151,0.0603 0,0.10531 0.0603,0.10531 z"
         fill="#000000"
         id="path8925"
         style="stroke-width:0.264583" />
      <path
         d="m 120.58268,154.65399 c -0.87392,0 -1.55178,-0.10557 -2.19948,-0.39185 -0.24103,-0.10531 -0.28628,-0.18071 -0.28628,-0.51224 0,-0.82841 0.0603,-1.73249 0.0754,-1.97352 0.0148,-0.22596 0.0601,-0.39159 0.18071,-0.39159 0.13547,0 0.15055,0.13547 0.15055,0.25612 0,0.19579 0.0603,0.51223 0.13573,0.76835 0.33126,1.11469 1.22026,1.52162 2.15424,1.52162 1.35572,0 2.01877,-0.91916 2.01877,-1.71741 0,-0.73819 -0.22596,-1.4314 -1.47638,-2.41062 l -0.69294,-0.54213 c -1.65735,-1.29567 -2.22965,-2.35029 -2.22965,-3.57055 0,-1.65709 1.38589,-2.84745 3.4798,-2.84745 0.57256,0 1.02447,0.0603 1.38616,0.12065 0.25611,0.0452 0.45191,0.0905 0.61753,0.13547 0.13574,0.0302 0.21114,0.0754 0.21114,0.18097 0,0.19579 -0.0603,0.63262 -0.0603,1.80764 0,0.33152 -0.0452,0.45217 -0.1659,0.45217 -0.1053,0 -0.15054,-0.0905 -0.15054,-0.2712 0,-0.13573 -0.0754,-0.60272 -0.39159,-0.9943 -0.22595,-0.28628 -0.66304,-0.73819 -1.64227,-0.73819 -1.11469,0 -1.79255,0.6477 -1.79255,1.55152 0,0.6932 0.34634,1.22025 1.59676,2.16958 l 0.42175,0.31618 c 1.82298,1.37107 2.47068,2.41062 2.47068,3.84175 0,0.87365 -0.33126,1.9132 -1.41605,2.62122 -0.75327,0.48207 -1.59676,0.61781 -2.39528,0.61781 z"
         fill="#000000"
         id="path8927"
         style="stroke-width:0.264583" />
      <path
         d="m 129.92353,147.8444 h 5.75496 c 0.0452,0 0.0905,-0.0302 0.0905,-0.1053 v -0.31644 c 0,-2.28997 0,-2.71172 -0.0302,-3.19379 -0.0302,-0.51223 -0.15081,-0.75327 -0.64796,-0.85883 -0.12039,-0.0302 -0.37651,-0.045 -0.58738,-0.045 -0.16589,0 -0.25612,-0.0302 -0.25612,-0.13573 0,-0.10557 0.10531,-0.13547 0.31618,-0.13547 0.8136,0 1.76266,0.045 2.16958,0.045 0.36143,0 1.31049,-0.045 1.89813,-0.045 0.21087,0 0.31644,0.0299 0.31644,0.13547 0,0.10556 -0.0905,0.13573 -0.2712,0.13573 -0.12065,0 -0.25612,0.0148 -0.43683,0.045 -0.40693,0.0754 -0.52731,0.33152 -0.55747,0.85883 -0.0302,0.48207 -0.0302,0.90382 -0.0302,3.19379 v 2.65139 c 0,1.38615 0,2.57625 0.0754,3.22395 0.045,0.42174 0.13547,0.75326 0.58737,0.81359 0.21088,0.0302 0.5424,0.0603 0.76835,0.0603 0.1659,0 0.24104,0.045 0.24104,0.12039 0,0.10557 -0.12039,0.15081 -0.30136,0.15081 -0.97922,0 -1.92828,-0.0452 -2.35003,-0.0452 -0.3466,0 -1.29566,0.0452 -1.88304,0.0452 -0.21114,0 -0.31644,-0.0452 -0.31644,-0.15081 0,-0.0754 0.0603,-0.12039 0.24103,-0.12039 0.22596,0 0.40667,-0.0302 0.5424,-0.0603 0.3011,-0.0603 0.3765,-0.39185 0.43683,-0.82868 0.0754,-0.63261 0.0754,-1.82271 0.0754,-3.20886 v -1.32556 c 0,-0.0603 -0.0452,-0.0905 -0.0905,-0.0905 h -5.75496 c -0.0452,0 -0.0902,0.0151 -0.0902,0.0905 v 1.32556 c 0,1.38615 0,2.57625 0.0751,3.22395 0.0453,0.42174 0.13573,0.75326 0.58764,0.81359 0.21087,0.0302 0.5424,0.0603 0.76835,0.0603 0.16563,0 0.24104,0.045 0.24104,0.12039 0,0.10557 -0.12065,0.15081 -0.30136,0.15081 -0.97923,0 -1.92829,-0.0452 -2.35003,-0.0452 -0.34661,0 -1.29567,0.0452 -1.89839,0.0452 -0.19579,0 -0.30136,-0.0452 -0.30136,-0.15081 0,-0.0754 0.0603,-0.12039 0.24104,-0.12039 0.22622,0 0.40693,-0.0302 0.54239,-0.0603 0.30136,-0.0603 0.37677,-0.39185 0.43709,-0.82868 0.0752,-0.63261 0.0752,-1.82271 0.0752,-3.20886 v -2.65139 c 0,-2.28997 0,-2.71172 -0.0302,-3.19379 -0.0302,-0.51223 -0.15054,-0.75327 -0.6477,-0.85883 -0.12065,-0.0302 -0.37676,-0.045 -0.58764,-0.045 -0.16562,0 -0.25611,-0.0302 -0.25611,-0.13573 0,-0.10557 0.10557,-0.13547 0.31644,-0.13547 0.81359,0 1.76265,0.045 2.16932,0.045 0.36168,0 1.31074,-0.045 1.89838,-0.045 0.21088,0 0.31618,0.0299 0.31618,0.13547 0,0.10556 -0.13547,0.13573 -0.2712,0.13573 -0.12038,0 -0.31617,0.0148 -0.43682,0.0299 -0.40667,0.0603 -0.52732,0.34661 -0.55748,0.87392 -0.0299,0.48207 -0.0299,0.90382 -0.0299,3.19379 v 0.31644 c 0,0.0751 0.045,0.1053 0.0902,0.1053 z"
         fill="#000000"
         id="path8929"
         style="stroke-width:0.264583" />
      <path
         d="m 142.87515,150.07405 v -2.65139 c 0,-2.28997 0,-2.71172 -0.0302,-3.19379 -0.0302,-0.51223 -0.15055,-0.75327 -0.6477,-0.85883 -0.12065,-0.0302 -0.37677,-0.045 -0.58764,-0.045 -0.16563,0 -0.25612,-0.0302 -0.25612,-0.13573 0,-0.10557 0.10557,-0.13547 0.33153,-0.13547 0.69294,0 1.38588,0.045 2.16932,0.045 0.48207,0 3.48006,0 3.76634,-0.0151 0.28628,-0.0299 0.52731,-0.0601 0.6477,-0.0902 0.0754,-0.0151 0.16563,-0.0603 0.24103,-0.0603 0.0754,0 0.0905,0.0603 0.0905,0.13573 0,0.1053 -0.0754,0.28601 -0.12065,0.97922 -0.0151,0.15055 -0.0452,0.81333 -0.0751,0.99431 -0.0151,0.0751 -0.0452,0.16563 -0.15081,0.16563 -0.10531,0 -0.13547,-0.0905 -0.13547,-0.2712 0,-0.0603 -0.0151,-0.30136 -0.0905,-0.48207 -0.10557,-0.2712 -0.25611,-0.45191 -1.00938,-0.5424 -0.25612,-0.0302 -1.8378,-0.0603 -2.13916,-0.0603 -0.0754,0 -0.10557,0.0452 -0.10557,0.15081 v 3.81132 c 0,0.10557 0.0151,0.1659 0.10557,0.1659 0.33126,0 2.06375,0 2.41036,-0.0302 0.36168,-0.0302 0.58764,-0.0754 0.7231,-0.22595 0.10557,-0.12065 0.16563,-0.19579 0.24104,-0.19579 0.0603,0 0.10557,0.0299 0.10557,0.12038 0,0.0905 -0.0603,0.33153 -0.12065,1.09988 -0.0151,0.30109 -0.0603,0.90381 -0.0603,1.00912 0,0.12065 0,0.28628 -0.13547,0.28628 -0.10556,0 -0.13546,-0.16563 -0.13546,-0.24104 -0.0151,-0.15055 -0.0151,-0.24104 -0.0603,-0.43683 -0.0754,-0.30136 -0.28628,-0.52731 -0.84375,-0.58764 -0.28628,-0.0299 -1.77774,-0.045 -2.13916,-0.045 -0.0754,0 -0.0905,0.0601 -0.0905,0.15055 v 1.1901 c 0,0.51223 -0.0151,1.89838 0,2.33521 0.0302,1.03955 0.2712,1.2655 1.8079,1.2655 0.39158,0 1.02447,0 1.41605,-0.18097 0.39185,-0.18071 0.57256,-0.49715 0.67786,-1.11469 0.0302,-0.16563 0.0603,-0.22596 0.1659,-0.22596 0.12038,0 0.12038,0.12039 0.12038,0.2712 0,0.34634 -0.12038,1.37081 -0.19579,1.67217 -0.1053,0.39158 -0.24103,0.39158 -0.81359,0.39158 -1.34065,0 -2.66647,-0.0902 -4.17301,-0.0902 -0.60246,0 -1.22026,0.0452 -1.89812,0.0452 -0.19579,0 -0.30136,-0.0452 -0.30136,-0.15081 0,-0.0754 0.0603,-0.12039 0.24103,-0.12039 0.22596,0 0.40693,-0.0302 0.5424,-0.0603 0.30136,-0.0603 0.3765,-0.39185 0.43683,-0.82868 0.0754,-0.63261 0.0754,-1.82271 0.0754,-3.20886 z"
         fill="#000000"
         id="path8931"
         style="stroke-width:0.264583" />
      <path
         d="m 152.54805,150.07405 v -2.65139 c 0,-2.28997 0,-2.71172 -0.0302,-3.19379 -0.0302,-0.51223 -0.15055,-0.75327 -0.6477,-0.85883 -0.12065,-0.0302 -0.37677,-0.045 -0.58764,-0.045 -0.16563,0 -0.25611,-0.0302 -0.25611,-0.13573 0,-0.10557 0.10556,-0.13547 0.33152,-0.13547 0.69294,0 1.38589,0.045 2.16932,0.045 0.48207,0 3.48006,0 3.76634,-0.0151 0.28602,-0.0299 0.52705,-0.0601 0.6477,-0.0902 0.0754,-0.0151 0.16563,-0.0603 0.24104,-0.0603 0.0754,0 0.0905,0.0603 0.0905,0.13573 0,0.1053 -0.0754,0.28601 -0.12065,0.97922 -0.0151,0.15055 -0.0452,0.81333 -0.0754,0.99431 -0.0151,0.0751 -0.045,0.16563 -0.15055,0.16563 -0.10557,0 -0.13547,-0.0905 -0.13547,-0.2712 0,-0.0603 -0.0151,-0.30136 -0.0905,-0.48207 -0.10557,-0.2712 -0.25612,-0.45191 -1.00939,-0.5424 -0.25612,-0.0302 -1.83806,-0.0603 -2.13916,-0.0603 -0.0754,0 -0.10557,0.0452 -0.10557,0.15081 v 3.81132 c 0,0.10557 0.0151,0.1659 0.10557,0.1659 0.33126,0 2.06375,0 2.41036,-0.0302 0.36142,-0.0302 0.58764,-0.0754 0.7231,-0.22595 0.10557,-0.12065 0.16563,-0.19579 0.24104,-0.19579 0.0603,0 0.10557,0.0299 0.10557,0.12038 0,0.0905 -0.0603,0.33153 -0.12065,1.09988 -0.0151,0.30109 -0.0603,0.90381 -0.0603,1.00912 0,0.12065 0,0.28628 -0.13546,0.28628 -0.10557,0 -0.13573,-0.16563 -0.13573,-0.24104 -0.0148,-0.15055 -0.0148,-0.24104 -0.0601,-0.43683 -0.0754,-0.30136 -0.28627,-0.52731 -0.84375,-0.58764 -0.28628,-0.0299 -1.77774,-0.045 -2.13916,-0.045 -0.0754,0 -0.0905,0.0601 -0.0905,0.15055 v 1.1901 c 0,0.51223 -0.0151,1.89838 0,2.33521 0.0302,1.03955 0.2712,1.2655 1.8079,1.2655 0.39159,0 1.02447,0 1.41605,-0.18097 0.39159,-0.18071 0.57256,-0.49715 0.67787,-1.11469 0.0302,-0.16563 0.0603,-0.22596 0.16589,-0.22596 0.12038,0 0.12038,0.12039 0.12038,0.2712 0,0.34634 -0.12038,1.37081 -0.19579,1.67217 -0.10557,0.39158 -0.24103,0.39158 -0.81359,0.39158 -1.34064,0 -2.66647,-0.0902 -4.17301,-0.0902 -0.60246,0 -1.22026,0.0452 -1.89812,0.0452 -0.19579,0 -0.30136,-0.0452 -0.30136,-0.15081 0,-0.0754 0.0603,-0.12039 0.24103,-0.12039 0.22596,0 0.40667,-0.0302 0.5424,-0.0603 0.30136,-0.0603 0.3765,-0.39185 0.43683,-0.82868 0.0754,-0.63261 0.0754,-1.82271 0.0754,-3.20886 z"
         fill="#000000"
         id="path8933"
         style="stroke-width:0.264583" />
      <path
         d="m 162.22096,150.07405 v -2.65139 c 0,-2.28997 0,-2.71172 -0.0302,-3.19379 -0.0302,-0.51223 -0.15081,-0.75327 -0.64796,-0.85883 -0.12039,-0.0302 -0.3765,-0.045 -0.58738,-0.045 -0.16589,0 -0.25611,-0.0302 -0.25611,-0.13573 0,-0.10557 0.1053,-0.13547 0.33126,-0.13547 0.79851,0 1.74757,0.045 2.16958,0.045 0.46699,0 1.41605,-0.045 2.31987,-0.045 1.8833,0 4.39922,0 6.04123,1.71741 0.75327,0.78317 1.46129,2.03359 1.46129,3.8264 0,1.89839 -0.79851,3.3446 -1.642,4.20317 -0.69321,0.70803 -2.25981,1.77774 -5.04693,1.77774 -0.5424,0 -1.15993,-0.0452 -1.73249,-0.0905 -0.57256,-0.045 -1.09988,-0.0902 -1.47638,-0.0902 -0.16563,0 -0.49715,0 -0.85883,0.0151 -0.34634,0 -0.73819,0.0302 -1.03929,0.0302 -0.19605,0 -0.30136,-0.0452 -0.30136,-0.15081 0,-0.0754 0.0603,-0.12039 0.24104,-0.12039 0.22595,0 0.40666,-0.0302 0.54239,-0.0603 0.30136,-0.0603 0.3765,-0.39185 0.43683,-0.82868 0.0754,-0.63261 0.0754,-1.82271 0.0754,-3.20886 z m 1.88304,-2.89243 v 1.89812 c 0,1.59703 0.0151,2.75696 0.0302,3.04324 0.0151,0.3765 0.0452,0.97922 0.16563,1.14485 0.19579,0.28628 0.78343,0.60272 1.97352,0.60272 1.5367,0 2.56117,-0.30136 3.46499,-1.08479 0.96414,-0.82841 1.2655,-2.19948 1.2655,-3.75126 0,-1.9132 -0.79851,-3.14854 -1.44621,-3.76608 -1.38589,-1.32583 -3.1033,-1.50654 -4.27858,-1.50654 -0.3011,0 -0.85857,0.0453 -0.97922,0.10531 -0.13547,0.0603 -0.18071,0.13573 -0.18071,0.30136 -0.0151,0.51223 -0.0151,1.82298 -0.0151,3.01307 z"
         fill="#000000"
         id="path8935"
         style="stroke-width:0.264583" />
      <line
         x1="143.20218"
         y1="161.39478"
         x2="228.27472"
         y2="161.39478"
         stroke="#000000"
         stroke-width="0.185208"
         id="line8937" />
      <line
         x1="-41.124035"
         y1="161.39478"
         x2="43.063473"
         y2="161.39478"
         stroke="#000000"
         stroke-width="0.185208"
         id="line8939" />
      <line
         x1="-41.124035"
         y1="133.88339"
         x2="228.27472"
         y2="133.88339"
         stroke="#000000"
         id="line8941"
         style="stroke-width:0.264583" />
      <line
         x1="-41.124035"
         y1="171.98923"
         x2="228.27472"
         y2="171.98923"
         stroke="#000000"
         id="line8943"
         style="stroke-width:0.264583" />
    </g>
  </g>
</svg>
