<svg width="40" height="46" viewBox="0 0 40 46" fill="none" xmlns="http://www.w3.org/2000/svg">
<g clip-path="url(#clip0_610:2206)">
<path d="M22.1 24V9.7C22.1 9.1 21.7 8.7 21.1 8.7H3.9C3.3 8.7 2.9 9.1 2.9 9.7V24C2.9 24.6 3.3 25 3.9 25H21.2C21.7 25 22.1 24.5 22.1 24ZM20.7 23.6H4.3V10.1H20.8V23.6H20.7ZM29.7 21.4C28 21.4 26.4 21.8 24.9 22.6V5.3C24.9 5.1 24.9 5 24.9 4.9C25.1 2.1 23 0 20.2 0C15.1 0.1 9.9 0 4.8 0C1.8 0 0 1.9 0 4.8C0 10.6 0 40.6 0 41.2C0 44.1 1.9 46 4.7 46C9.9 46 15.1 46 20.3 46C23.2 46 25 44.1 25 41.2C25 40.9 25 40.7 25 40.4C26.4 41.2 28 41.6 29.8 41.6C35.4 41.6 40 37.1 40 31.4C39.9 25.9 35.4 21.4 29.7 21.4ZM23.7 30.8H21.1C21.2 29.2 21.8 27.6 22.8 26.4C23.2 26.7 23.8 26.9 24.3 27.1C24 28.2 23.8 29.4 23.7 30.8ZM24.3 35.8C23.7 36 23.2 36.2 22.7 36.5C21.8 35.2 21.2 33.8 21.1 32.2H23.7C23.8 33.5 24 34.7 24.3 35.8ZM23.7 25.2C24.3 24.6 25 24.2 25.8 23.8C25.4 24.3 25.1 24.9 24.8 25.7C24.4 25.5 24.1 25.4 23.7 25.2ZM24.2 23C24.2 23 24.3 23 24.2 23C24.3 23 24.2 23 24.2 23ZM18.8 1.5C18.3 2 17.9 2.4 17.5 2.8C17.4 2.9 17.2 3 17.1 3C14 3 11 3 7.9 3C7.8 3 7.6 2.9 7.5 2.8C7.1 2.4 6.7 2 6.2 1.5C10.4 1.5 14.5 1.5 18.8 1.5ZM17.6 44.5C14.2 44.5 10.8 44.5 7.3 44.5C7.3 44.3 7.3 44.1 7.3 43.9C7.3 43.3 7.6 43.1 8.2 43.1C9.3 43.1 10.3 43.1 11.4 43.1C13.1 43.1 14.8 43.1 16.5 43.1C17.4 43.1 17.6 43.3 17.6 44.2C17.6 44.3 17.6 44.3 17.6 44.5ZM20.3 44.5C19.9 44.5 19.5 44.5 19.1 44.5C19.1 44.2 19.1 43.9 19.1 43.7C19.1 42.5 18.1 41.6 17 41.6C14 41.6 11 41.6 8.1 41.6C6.9 41.6 6 42.6 6 43.8C6 44 6 44.3 6 44.7C5.2 44.6 4.4 44.7 3.7 44.5C2.5 44.2 1.7 43.1 1.6 41.9C1.6 41.1 1.6 40.3 1.6 39.4C1.6 39.4 1.6 10.7 1.6 4.7C1.6 3.2 2.5 2.1 3.8 1.7C4.1 1.6 4.4 1.6 4.6 1.9C5.3 2.7 6.1 3.4 6.8 4.2C7 4.4 7.4 4.6 7.7 4.6C11 4.6 14.3 4.6 17.6 4.6C17.9 4.6 18.3 4.4 18.5 4.2C19.3 3.5 20 2.7 20.7 1.9C20.9 1.6 21.2 1.6 21.5 1.7C22.7 2 23.7 3.2 23.7 4.5C23.7 4.7 23.7 5 23.7 5.3V23C23.7 23 23.7 23.2 23.7 23.5C21.3 25.4 19.8 28.2 19.8 31.5C19.8 34.8 21.3 37.7 23.7 39.5C23.7 40.1 23.7 40.7 23.7 41.3C23.5 43.3 22.3 44.5 20.3 44.5ZM24.2 40C24.2 40.1 24.3 40.1 24.2 40C24.3 40.1 24.2 40.1 24.2 40ZM23.7 37.7C24 37.6 24.4 37.4 24.7 37.3C25 38 25.4 38.7 25.8 39.3C25.1 38.9 24.3 38.3 23.7 37.7ZM29 40C27.9 39.6 26.9 38.4 26.2 36.8C27.1 36.6 28.1 36.4 29 36.4V40ZM29 34.9C27.9 35 26.8 35.1 25.7 35.3C25.4 34.3 25.3 33.3 25.2 32.2H29V34.9ZM29 30.7H25.2C25.3 29.6 25.4 28.5 25.7 27.5C26.7 27.8 27.8 28 29 28V30.7ZM29 26.6C28 26.5 27.1 26.4 26.2 26.2C26.9 24.6 27.9 23.5 29 23.1V26.6ZM38.3 30.7H35.7V30.8C35.6 29.5 35.5 28.4 35.2 27.3C35.8 27.1 36.3 26.9 36.8 26.6C37.7 27.7 38.3 29.2 38.3 30.7ZM35.9 25.4C35.5 25.5 35.2 25.7 34.8 25.8C34.5 25 34.1 24.3 33.7 23.7C34.5 24.2 35.3 24.7 35.9 25.4ZM30.5 23.1C31.6 23.5 32.6 24.7 33.3 26.4C32.4 26.5 31.4 26.6 30.5 26.7V23.1ZM30.5 28.1C31.6 28.1 32.8 28 33.8 27.7C34 28.7 34.2 29.7 34.2 30.7H30.4V28.1H30.5ZM30.5 32.3H34.3C34.2 33.4 34.1 34.4 33.8 35.4C32.8 35.1 31.7 35 30.5 35V32.3ZM30.5 40V36.4C31.5 36.5 32.4 36.5 33.3 36.8C32.6 38.4 31.6 39.6 30.5 40ZM33.7 39.2C34.1 38.6 34.4 37.9 34.8 37.2C35.2 37.3 35.5 37.5 35.8 37.6C35.2 38.3 34.5 38.8 33.7 39.2ZM36.8 36.6C36.4 36.3 35.8 36.1 35.2 35.9C35.5 34.8 35.7 33.6 35.7 32.3H38.3C38.2 33.9 37.6 35.3 36.8 36.6ZM17 28.6C17 29 16.7 29.3 16.3 29.3H3.6C3.2 29.3 2.9 29 2.9 28.6C2.9 28.2 3.2 27.9 3.6 27.9H16.3C16.7 27.9 17 28.2 17 28.6ZM12 34.5C12 34.9 11.7 35.2 11.3 35.2H3.6C3.2 35.2 2.9 34.9 2.9 34.5C2.9 34.1 3.2 33.8 3.6 33.8H11.3C11.7 33.8 12 34.1 12 34.5ZM17 31.5C17 31.9 16.7 32.2 16.3 32.2H3.6C3.2 32.2 2.9 31.9 2.9 31.5C2.9 31.1 3.2 30.8 3.6 30.8H16.3C16.7 30.8 17 31.1 17 31.5Z" fill="#D0222B"/>
</g>
<defs>
<clipPath id="clip0_610:2206">
<rect width="39.9" height="46" fill="white"/>
</clipPath>
</defs>
</svg>
