<svg width="42" height="44" viewBox="0 0 42 44" fill="none" xmlns="http://www.w3.org/2000/svg">
<path d="M40.4 0H8.5C8.1 0 7.8 0.3 7.8 0.7V36.8H5.6C3.6 36.8 1.9 38.4 1.9 40.4C1.9 42.4 3.6 44 5.7 44H35.3H35.4C36.9 43.9 38.3 43.4 39.3 42.4C40.4 41.4 41 40 41 38.4V0.7C41.1 0.3 40.8 0 40.4 0ZM32.7 42.6H5.7C4.4 42.6 3.3 41.6 3.3 40.4C3.3 39.1 4.3 38.2 5.6 38.2H8.4H32.6C32.1 38.8 31.7 39.6 31.7 40.4C31.9 41.3 32.2 42 32.7 42.6ZM39.7 38.5C39.7 40.9 37.9 42.6 35.4 42.7C34.2 42.6 33.2 41.6 33.2 40.5C33.2 39.4 34.3 38.3 35.6 38.3C36 38.3 36.2 38 36.2 37.6C36.2 37.2 35.9 36.9 35.5 36.9H9.2V1.4H39.8V38.5H39.7ZM2.6 35.3C2.9 35.3 3.1 35.1 3.2 34.9L5.2 30C5.2 29.9 5.2 29.8 5.2 29.7V9.4C5.2 8 4 6.8 2.6 6.8C1.2 6.8 0 8 0 9.4V29.8C0 29.9 0 30 0 30.1L2 34.9C2.1 35.1 2.3 35.3 2.6 35.3ZM1.4 9.4C1.4 8.7 2 8.1 2.7 8.1C3.4 8.1 4 8.7 4 9.4V10.7H1.4V9.4ZM1.4 12H3.9V13.6H1.4V12ZM1.4 14.9H3.9V29.6L2.6 32.7L1.3 29.6V14.9H1.4ZM12.6 27.8C12.6 27.4 12.9 27.1 13.3 27.1H35.6C36 27.1 36.3 27.4 36.3 27.8C36.3 28.2 36 28.5 35.6 28.5H13.3C12.9 28.5 12.6 28.2 12.6 27.8ZM33.3 30.7C33.3 31.1 33 31.4 32.6 31.4H16.2C15.8 31.4 15.5 31.1 15.5 30.7C15.5 30.3 15.8 30 16.2 30H32.7C33 30 33.3 30.3 33.3 30.7ZM30.4 33.6C30.4 34 30.1 34.3 29.7 34.3H19.1C18.7 34.3 18.4 34 18.4 33.6C18.4 33.2 18.7 32.9 19.1 32.9H29.8C30.1 33 30.4 33.3 30.4 33.6ZM25.1 15.2V23.5C25.1 23.7 25.3 23.9 25.5 23.9C30.3 23.9 34.2 20 34.2 15.2C34.2 15 34 14.8 33.8 14.8H25.5C25.3 14.9 25.1 15 25.1 15.2ZM26.4 16.2H32.8C32.4 19.5 29.7 22.2 26.4 22.6V16.2ZM23.4 22C23.6 22 23.8 21.8 23.8 21.6V13.6H31.7C31.8 13.6 31.9 13.6 32 13.5C32.1 13.4 32.1 13.3 32.1 13.2C32.1 8.4 28.2 4.5 23.4 4.5C18.6 4.5 14.7 8.4 14.7 13.2C14.7 18 18.6 22 23.4 22ZM23.4 5.8C27.2 5.8 30.3 8.6 30.7 12.3H23C22.7 12.3 22.5 12.5 22.5 12.8V20.6C18.9 20.1 16 17 16 13.2C16.1 9.2 19.4 5.8 23.4 5.8Z" fill="#D0222B"/>
</svg>
